<svg id="Layer_1" data-name="Layer 1" xmlns="http://www.w3.org/2000/svg" viewBox="0 0 795.96 577.68"><defs><style>.cls-1{fill:#bec0c2;}.cls-2,.cls-3,.cls-56,.cls-57,.cls-58,.cls-59{fill:#e7438b;}.cls-2{opacity:0.79;}.cls-3{opacity:0.15;}.cls-4{fill:#ef467b;}.cls-5{fill:#ce93c1;}.cls-6{fill:#daadd1;}.cls-49,.cls-7{fill:none;}.cls-7{stroke:#fdecdc;}.cls-48,.cls-49,.cls-7{stroke-miterlimit:10;}.cls-8{fill:#29468a;}.cls-9{fill:#fdecdc;}.cls-10{opacity:0.92;}.cls-11{fill:#b44b9c;}.cls-12{fill:#ede6eb;}.cls-13{fill:#c08fc0;}.cls-14{fill:#f1ee86;}.cls-15{fill:#a0c4e8;opacity:0.95;}.cls-16,.cls-18{fill:#252b63;}.cls-16{opacity:0.78;}.cls-17{fill:#5082c3;}.cls-18{opacity:0.67;}.cls-19{fill:#13123d;}.cls-20{fill:#5069b2;}.cls-21{fill:#da3c66;}.cls-22{fill:#dc4b60;}.cls-23{fill:#a2246d;}.cls-24{fill:#6294ce;}.cls-25{fill:#e57f56;}.cls-26{fill:#ba4a9b;}.cls-27{fill:#da3c64;}.cls-28{fill:#ed9556;}.cls-29{fill:#8a256e;}.cls-30{fill:#ed477d;}.cls-31{fill:#dc466a;}.cls-32{fill:#8e236c;}.cls-33{fill:#5173b8;}.cls-34{fill:#638bc8;}.cls-35{fill:#e5765a;}.cls-36{fill:#e98053;}.cls-37{fill:#a7256e;}.cls-38{fill:#e88057;}.cls-39{fill:#f9d6af;}.cls-40{fill:#96236d;}.cls-41{fill:#7f97cd;}.cls-42{fill:#f5c7d2;}.cls-43{fill:#242f60;}.cls-44{fill:#6097cc;}.cls-45{fill:#1b547d;}.cls-46,.cls-51{fill:#588ec7;}.cls-47,.cls-48{fill:#134067;}.cls-48,.cls-49{stroke:#fff;}.cls-50{fill:#5185c1;}.cls-51{opacity:0.99;}.cls-52,.cls-53,.cls-54,.cls-55{fill:#272d5b;}.cls-52{opacity:0.88;}.cls-53{opacity:0.94;}.cls-55{opacity:0.93;}.cls-56{opacity:0.87;}.cls-57{opacity:0.83;}.cls-58{opacity:0.86;}.cls-59{opacity:0.81;}</style></defs><ellipse class="cls-1" cx="345.21" cy="567.03" rx="166" ry="6.34"/><ellipse class="cls-1" cx="425.09" cy="546.67" rx="166" ry="6.34"/><ellipse class="cls-1" cx="692.01" cy="489.49" rx="103.95" ry="5.09"/><ellipse class="cls-1" cx="72.13" cy="489.49" rx="61.74" ry="4.47"/><path class="cls-2" d="M847.61,419.16c-1,111.48-143.09,215.07-245.54,198.89-73.78-11.64-83.86-78.84-157-83.32-92-5.63-135.73,103.29-189.87,83.32-38.8-14.31-20.23-70.78-82.95-174.7-38-62.92-60.12-67.63-64.1-106.83-6.36-62.6,41.42-136.2,93-144.54,23.39-3.78,29.06,8.84,94.26,17.59,34.21,4.59,51.31,6.89,70.39,3.77,60.93-10,66.11-56.3,104.32-57.81,58.52-2.31,74.6,105.34,155.61,118.44,45.49,7.36,88.22-2.81,88.22-2.81,18-4.29,19.52-7.19,27.65-7.54C786.3,261.71,848.25,344.9,847.61,419.16Z" transform="translate(-107.55 -153.62)"/><path class="cls-3" d="M884,417.29c-1,111.49-143.09,215.07-245.54,198.9-73.78-11.65-83.86-78.84-157-83.32-92-5.63-135.73,103.29-189.87,83.32-38.8-14.32-20.23-70.79-83-174.71-38-62.92-60.12-67.63-64.1-106.83-6.35-62.6,41.42-136.2,93-144.54,23.39-3.78,29.06,8.84,94.26,17.6,34.21,4.59,51.31,6.88,70.39,3.77,60.93-9.95,66.11-56.31,104.32-57.82C565,151.35,581.08,259,662.09,272.11c45.49,7.36,88.22-2.82,88.22-2.82,18-4.29,19.52-7.19,27.65-7.54C822.68,259.84,884.63,343,884,417.29Z" transform="translate(-107.55 -153.62)"/><path class="cls-4" d="M428.07,493.13H558.93a5,5,0,0,1,5,5v19.78a5,5,0,0,1-5,5H428.35a3.25,3.25,0,0,1-3.25-3.25V496.11A3,3,0,0,1,428.07,493.13Z"/><rect class="cls-5" x="425.09" y="495.9" width="134.94" height="24.49"/><rect class="cls-6" x="425.09" y="496.97" width="134.94" height="0.61"/><rect class="cls-6" x="425.09" y="498.04" width="134.94" height="0.61"/><rect class="cls-6" x="425.09" y="499.11" width="134.94" height="0.61"/><rect class="cls-6" x="425.09" y="500.19" width="134.94" height="0.61"/><rect class="cls-6" x="425.09" y="501.26" width="134.94" height="0.61"/><rect class="cls-6" x="425.09" y="502.34" width="134.94" height="0.61"/><rect class="cls-6" x="425.09" y="503.41" width="134.94" height="0.61"/><rect class="cls-6" x="425.09" y="504.49" width="134.94" height="0.61"/><rect class="cls-6" x="425.09" y="505.56" width="134.94" height="0.61"/><rect class="cls-6" x="425.09" y="506.64" width="134.94" height="0.61"/><rect class="cls-6" x="425.09" y="507.71" width="134.94" height="0.61"/><rect class="cls-6" x="425.09" y="508.78" width="134.94" height="0.61"/><rect class="cls-6" x="425.09" y="509.86" width="134.94" height="0.61"/><rect class="cls-6" x="425.09" y="510.93" width="134.94" height="0.61"/><rect class="cls-6" x="425.09" y="512.01" width="134.94" height="0.61"/><rect class="cls-6" x="425.09" y="513.08" width="134.94" height="0.61"/><rect class="cls-6" x="425.09" y="514.16" width="134.94" height="0.61"/><rect class="cls-6" x="425.09" y="515.23" width="134.94" height="0.61"/><rect class="cls-6" x="425.09" y="516.3" width="134.94" height="0.61"/><rect class="cls-6" x="425.09" y="517.38" width="134.94" height="0.61"/><rect class="cls-6" x="425.09" y="518.45" width="134.94" height="0.61"/><rect class="cls-6" x="425.09" y="519.53" width="134.94" height="0.61"/><rect class="cls-7" x="577.92" y="522.82" width="1.7" height="2.65"/><rect class="cls-7" x="577.92" y="543.29" width="1.7" height="3.03"/><path class="cls-8" d="M685.47,679.1v17.81h1.7v3H518.66a9.64,9.64,0,0,1-9.65-9.64v-4.09a9.65,9.65,0,0,1,9.65-9.64H687.17v2.59Z" transform="translate(-107.55 -153.62)"/><path class="cls-9" d="M685.47,679.1v17.81H559a4.45,4.45,0,0,1-4.45-4.45v-8.9A4.46,4.46,0,0,1,559,679.1Z" transform="translate(-107.55 -153.62)"/><path class="cls-8" d="M675.8,682.26a11.23,11.23,0,0,1,2.11,4.22,11.62,11.62,0,0,1-.79,7.65h-.21L673.55,687a10.11,10.11,0,0,1-.39,1.71,11.2,11.2,0,0,1-4,5.41h-.21a11.79,11.79,0,0,0,.53-7.25,11.58,11.58,0,0,0-2.37-4.62Z" transform="translate(-107.55 -153.62)"/><g class="cls-10"><path class="cls-11" d="M794.06,516.33a232.77,232.77,0,0,1-27.63,70c-11.7,19.64-25.41,35-39.69,44.53-8.17-15-13.29-34.68-14.84-57.17,0,0-3.75-36.75,6.61-73.77,14.87-53.18,77-114.07,169.36-146.21C823.25,430.67,801.37,482.35,794.06,516.33Z" transform="translate(-107.55 -153.62)"/><path class="cls-12" d="M732.48,613.51a259.91,259.91,0,0,1,4.06-44.28,273.36,273.36,0,0,1,54.29-120.66,262.13,262.13,0,0,1,30.41-32.44c1.38-1.24,2.78-2.46,4.19-3.68s-.67-3.37-2.13-2.12A261.9,261.9,0,0,0,792,442.43a274.26,274.26,0,0,0-25.67,37A279.07,279.07,0,0,0,747.06,520a272.82,272.82,0,0,0-12.45,43.33,265,265,0,0,0-5,44.58c-.05,1.86-.08,3.71-.09,5.57a1.5,1.5,0,0,0,3,0Z" transform="translate(-107.55 -153.62)"/></g><path class="cls-13" d="M795.31,495.68c0,54.43-15.82,101.9-39.27,126.93-10.88-11.19-24.44-28.84-27.55-52.25-3.66-27.53,9.1-48.45,16.93-66.14,12-27.16,22.55-69.61,11.87-134.1C780.05,395.49,795.31,442.22,795.31,495.68Z" transform="translate(-107.55 -153.62)"/><path class="cls-12" d="M756.51,606.71c-4.75-23.4,1.53-46.94,8.66-69.16,3.69-11.52,7.7-22.95,11-34.61a187.1,187.1,0,0,0,6.58-36.66,175.9,175.9,0,0,0-2.16-42.87c-.33-1.9-3.22-1.09-2.89.8a175.41,175.41,0,0,1-3.78,75.55c-6.21,23.12-15.82,45.33-20,69-2.3,12.84-2.82,25.95-.22,38.78.39,1.9,3.28,1.1,2.9-.79Z" transform="translate(-107.55 -153.62)"/><circle class="cls-14" cx="702.2" cy="191.08" r="10.2"/><rect class="cls-15" x="78.36" y="90.73" width="178.16" height="385.84"/><rect class="cls-16" x="98.03" y="126.8" width="144.28" height="282"/><rect class="cls-17" x="94.21" y="206.59" width="151.93" height="6.11"/><rect class="cls-17" x="226.42" y="507.77" width="103.17" height="3.7" transform="translate(680.08 77.99) rotate(90)"/><rect class="cls-17" x="98.03" y="303.13" width="145.37" height="3.46"/><rect class="cls-15" x="291.36" y="90.73" width="356.46" height="385.84"/><rect class="cls-18" x="321.06" y="126.8" width="298.11" height="236.94"/><rect class="cls-17" x="321.5" y="206.2" width="297.67" height="6.49"/><rect class="cls-17" x="309.56" y="284.19" width="309.61" height="5.93"/><rect class="cls-19" x="248.95" y="90.73" width="2.82" height="385.84"/><rect class="cls-19" x="305.26" y="90.73" width="2.82" height="385.84"/><rect class="cls-19" x="248.95" y="113.28" width="59.13" height="2.85"/><rect class="cls-19" x="248.95" y="147.99" width="59.13" height="2.85"/><rect class="cls-19" x="248.95" y="182.7" width="59.13" height="2.85"/><rect class="cls-19" x="248.95" y="217.41" width="59.13" height="2.85"/><rect class="cls-19" x="248.95" y="252.12" width="59.13" height="2.85"/><rect class="cls-19" x="248.95" y="286.84" width="59.13" height="2.85"/><rect class="cls-19" x="248.95" y="321.55" width="59.13" height="2.85"/><rect class="cls-19" x="248.95" y="356.26" width="59.13" height="2.85"/><rect class="cls-19" x="248.95" y="390.97" width="59.13" height="2.85"/><rect class="cls-19" x="248.95" y="425.69" width="59.13" height="2.85"/><rect class="cls-20" x="334.32" y="393.83" width="96.54" height="51.07"/><rect class="cls-18" x="348.36" y="401.25" width="68.46" height="36.22"/><rect class="cls-20" x="499.29" y="393.83" width="96.54" height="51.07"/><rect class="cls-18" x="513.33" y="401.25" width="68.46" height="36.22"/><circle class="cls-19" cx="382.59" cy="419.36" r="4.51"/><circle class="cls-19" cx="547.56" cy="419.36" r="4.51"/><path class="cls-21" d="M106.68,138.69h6.08a2.65,2.65,0,0,1,2.65,2.65V204a2.56,2.56,0,0,1-2.56,2.56H106.6A2.56,2.56,0,0,1,104,204V141.34a2.65,2.65,0,0,1,2.65-2.65Z"/><path class="cls-22" d="M107.69,175.25h4.07a1.77,1.77,0,0,1,1.77,1.77v24.08a1.5,1.5,0,0,1-1.5,1.5h-4.62a1.5,1.5,0,0,1-1.5-1.5V177a1.77,1.77,0,0,1,1.77-1.77Z"/><rect class="cls-22" x="104.98" y="163.81" width="9.48" height="9.48" rx="2.21"/><path class="cls-23" d="M518.73,218.16h6.08a2.65,2.65,0,0,1,2.65,2.65V283.5a2.56,2.56,0,0,1-2.56,2.56h-6.25a2.56,2.56,0,0,1-2.56-2.56V220.81a2.65,2.65,0,0,1,2.65-2.65Z"/><path class="cls-24" d="M519.73,254.72h4.07a1.77,1.77,0,0,1,1.77,1.77v24.08a1.5,1.5,0,0,1-1.5,1.5h-4.62a1.5,1.5,0,0,1-1.5-1.5V256.5a1.77,1.77,0,0,1,1.77-1.77Z"/><rect class="cls-25" x="517.03" y="243.28" width="9.48" height="9.48" rx="2.21"/><path class="cls-26" d="M146.74,137.88h6.08a2.65,2.65,0,0,1,2.65,2.65v62.69a2.56,2.56,0,0,1-2.56,2.56h-6.25a2.56,2.56,0,0,1-2.56-2.56V140.53a2.65,2.65,0,0,1,2.65-2.65Z"/><path class="cls-22" d="M147.74,174.44h4.07a1.77,1.77,0,0,1,1.77,1.77V200.3a1.5,1.5,0,0,1-1.5,1.5h-4.62a1.5,1.5,0,0,1-1.5-1.5V176.22a1.77,1.77,0,0,1,1.77-1.77Z"/><rect class="cls-22" x="145.04" y="162.99" width="9.48" height="9.48" rx="2.21"/><path class="cls-27" d="M269.47,291.5h6.08a2.65,2.65,0,0,1,2.65,2.65v62.69a2.56,2.56,0,0,1-2.56,2.56h-6.25a2.56,2.56,0,0,1-2.56-2.56V294.15a2.65,2.65,0,0,1,2.65-2.65Z" transform="matrix(0.99, -0.14, 0.14, 0.99, -149.18, -113.65)"/><path class="cls-28" d="M272.68,327.92h4.07a1.77,1.77,0,0,1,1.77,1.77v24.08a1.5,1.5,0,0,1-1.5,1.5h-4.62a1.5,1.5,0,0,1-1.5-1.5V329.69A1.77,1.77,0,0,1,272.68,327.92Z" transform="translate(-151.35 -113.2) rotate(-7.8)"/><path class="cls-27" d="M329.12,371.79h6.08a2.65,2.65,0,0,1,2.65,2.65v62.69a2.56,2.56,0,0,1-2.56,2.56H329a2.56,2.56,0,0,1-2.56-2.56V374.43A2.65,2.65,0,0,1,329.12,371.79Z" transform="translate(53.34 -243.49) rotate(20.24)"/><path class="cls-28" d="M324.49,407.34h4.07a1.77,1.77,0,0,1,1.77,1.77V433.2a1.5,1.5,0,0,1-1.5,1.5h-4.62a1.5,1.5,0,0,1-1.5-1.5V409.12a1.77,1.77,0,0,1,1.77-1.77Z" transform="translate(58.28 -240.6) rotate(20.24)"/><path class="cls-27" d="M254.56,473.18h6.08a2.65,2.65,0,0,1,2.65,2.65v62.69a2.56,2.56,0,0,1-2.56,2.56h-6.25a2.56,2.56,0,0,1-2.56-2.56V475.83a2.65,2.65,0,0,1,2.65-2.65Z" transform="translate(83.82 -211.43) rotate(20.24)"/><path class="cls-28" d="M249.93,508.74H254a1.77,1.77,0,0,1,1.77,1.77v24.08a1.5,1.5,0,0,1-1.5,1.5h-4.62a1.5,1.5,0,0,1-1.5-1.5V510.51A1.77,1.77,0,0,1,249.93,508.74Z" transform="translate(88.76 -208.54) rotate(20.24)"/><path class="cls-27" d="M329.12,462.42h6.08a2.65,2.65,0,0,1,2.65,2.65v62.69a2.56,2.56,0,0,1-2.56,2.56H329a2.56,2.56,0,0,1-2.56-2.56V465.07a2.65,2.65,0,0,1,2.65-2.65Z" transform="translate(84.7 -237.89) rotate(20.24)"/><path class="cls-28" d="M324.49,498h4.07a1.77,1.77,0,0,1,1.77,1.77v24.08a1.5,1.5,0,0,1-1.5,1.5h-4.62a1.5,1.5,0,0,1-1.5-1.5V499.75A1.77,1.77,0,0,1,324.49,498Z" transform="translate(89.64 -235) rotate(20.24)"/><path class="cls-27" d="M525.27,451.78h6.08a2.65,2.65,0,0,1,2.65,2.65v62.69a2.56,2.56,0,0,1-2.56,2.56h-6.25a2.56,2.56,0,0,1-2.56-2.56V454.42A2.65,2.65,0,0,1,525.27,451.78Z" transform="translate(93.13 -306.41) rotate(20.24)"/><path class="cls-28" d="M520.64,487.33h4.07a1.77,1.77,0,0,1,1.77,1.77v24.08a1.5,1.5,0,0,1-1.5,1.5h-4.62a1.5,1.5,0,0,1-1.5-1.5V489.11a1.77,1.77,0,0,1,1.77-1.77Z" transform="translate(98.07 -303.52) rotate(20.24)"/><path class="cls-29" d="M240.8,387.47h6.08a2.65,2.65,0,0,1,2.65,2.65V452.8a2.56,2.56,0,0,1-2.56,2.56h-6.25a2.56,2.56,0,0,1-2.56-2.56V390.11A2.65,2.65,0,0,1,240.8,387.47Z" transform="translate(-162.46 -116.65) rotate(-7.8)"/><path class="cls-28" d="M244,423.88h4.07a1.77,1.77,0,0,1,1.77,1.77v24.08a1.5,1.5,0,0,1-1.5,1.5h-4.62a1.5,1.5,0,0,1-1.5-1.5V425.65a1.77,1.77,0,0,1,1.77-1.77Z" transform="translate(-164.63 -116.2) rotate(-7.8)"/><path class="cls-30" d="M253.24,385.61h8.16a3.55,3.55,0,0,1,3.55,3.55v60.91a3.44,3.44,0,0,1-3.44,3.44h-8.39a3.44,3.44,0,0,1-3.44-3.44V389.17A3.55,3.55,0,0,1,253.24,385.61Z" transform="translate(-162.09 -114.84) rotate(-7.8)"/><path class="cls-31" d="M256.8,422h5.47a2.38,2.38,0,0,1,2.38,2.38v23a2,2,0,0,1-2,2h-6.2a2,2,0,0,1-2-2v-23A2.38,2.38,0,0,1,256.8,422Z" transform="matrix(0.99, -0.14, 0.14, 0.99, -164.26, -114.39)"/><path class="cls-32" d="M292.91,393.53h8.16a3.55,3.55,0,0,1,3.55,3.55V458a3.44,3.44,0,0,1-3.44,3.44H292.8a3.44,3.44,0,0,1-3.44-3.44V397.08a3.55,3.55,0,0,1,3.55-3.55Z" transform="translate(618.78 -20.44) rotate(90.36)"/><path class="cls-31" d="M278,413.7h5.47a2.38,2.38,0,0,1,2.38,2.38v23a2,2,0,0,1-2,2h-6.2a2,2,0,0,1-2-2v-23A2.38,2.38,0,0,1,278,413.7Z" transform="translate(602.29 -4.25) rotate(90.36)"/><path class="cls-32" d="M562.84,458.35H571a3.55,3.55,0,0,1,3.55,3.55v60.91a3.44,3.44,0,0,1-3.44,3.44h-8.39a3.44,3.44,0,0,1-3.44-3.44V461.9A3.55,3.55,0,0,1,562.84,458.35Z" transform="translate(955.24 -225.12) rotate(90.36)"/><path class="cls-31" d="M547.89,478.52h5.47a2.38,2.38,0,0,1,2.38,2.38v23a2,2,0,0,1-2,2h-6.2a2,2,0,0,1-2-2v-23a2.38,2.38,0,0,1,2.38-2.38Z" transform="translate(938.74 -208.93) rotate(90.36)"/><path class="cls-27" d="M234.52,531.17h6.08a2.65,2.65,0,0,1,2.65,2.65v46.84a2.56,2.56,0,0,1-2.56,2.56h-6.25a2.56,2.56,0,0,1-2.56-2.56V533.82a2.65,2.65,0,0,1,2.65-2.65Z" transform="translate(687.11 165.79) rotate(89.98)"/><path class="cls-28" d="M223,546.72h4.07a1.77,1.77,0,0,1,1.77,1.77v17.7a1.5,1.5,0,0,1-1.5,1.5h-4.62a1.5,1.5,0,0,1-1.5-1.5V548.5a1.77,1.77,0,0,1,1.77-1.77Z" transform="translate(674.63 178.29) rotate(89.98)"/><path class="cls-32" d="M224.06,548.58l.05-8.93c0-1.75,1.1-3.16,2.44-3.15l47.12.39c1.38,0,2.5,1.49,2.49,3.29l-.05,8.73c0,1.8-1.13,3.26-2.52,3.25l-47.12-.39C225.13,551.76,224.05,550.33,224.06,548.58Z" transform="translate(-107.55 -153.62)"/><path class="cls-31" d="M227.12,547.35l0-6.42c0-1,.66-1.9,1.47-1.89l17.78.15a2,2,0,0,1,1.72,2.26l0,5.73a2,2,0,0,1-1.73,2.23l-17.79-.14A1.73,1.73,0,0,1,227.12,547.35Z" transform="translate(-107.55 -153.62)"/><path class="cls-27" d="M548.47,318.25h6.08a2.65,2.65,0,0,1,2.65,2.65v62.69a2.56,2.56,0,0,1-2.56,2.56h-6.25a2.56,2.56,0,0,1-2.56-2.56V320.9a2.65,2.65,0,0,1,2.65-2.65Z" transform="matrix(0, 1, -1, 0, 795.87, -353.12)"/><path class="cls-28" d="M533.18,338.53h4.07A1.77,1.77,0,0,1,539,340.3v24.08a1.5,1.5,0,0,1-1.5,1.5h-4.62a1.5,1.5,0,0,1-1.5-1.5V340.3a1.77,1.77,0,0,1,1.77-1.77Z" transform="matrix(0, 1, -1, 0, 779.59, -336.82)"/><path class="cls-32" d="M563.8,305.38H572a3.55,3.55,0,0,1,3.55,3.55v60.91a3.44,3.44,0,0,1-3.44,3.44h-8.39a3.44,3.44,0,0,1-3.44-3.44V308.93A3.55,3.55,0,0,1,563.8,305.38Z" transform="translate(803.24 -380.02) rotate(90.36)"/><path class="cls-31" d="M548.86,325.55h5.47a2.38,2.38,0,0,1,2.38,2.38v23a2,2,0,0,1-2,2h-6.2a2,2,0,0,1-2-2v-23A2.38,2.38,0,0,1,548.86,325.55Z" transform="translate(786.74 -363.84) rotate(90.36)"/><path class="cls-33" d="M308.43,405.17h8.16a3.55,3.55,0,0,1,3.55,3.55v70.16a3.44,3.44,0,0,1-3.44,3.44h-8.39a3.44,3.44,0,0,1-3.44-3.44V408.73A3.55,3.55,0,0,1,308.43,405.17Z" transform="translate(650.67 -19.58) rotate(90.36)"/><path class="cls-34" d="M291.26,428.09h5.47a2.38,2.38,0,0,1,2.38,2.38v26.69a2,2,0,0,1-2,2h-6.2a2,2,0,0,1-2-2V430.47a2.38,2.38,0,0,1,2.38-2.38Z" transform="translate(631.93 -1.19) rotate(90.36)"/><path class="cls-33" d="M700.37,283.63h8.16a3.55,3.55,0,0,1,3.55,3.55v70.16a3.44,3.44,0,0,1-3.44,3.44h-8.39a3.44,3.44,0,0,1-3.44-3.44V287.18a3.55,3.55,0,0,1,3.55-3.55Z" transform="translate(1125.98 734.39) rotate(-157.66)"/><path class="cls-34" d="M708.75,289.54h5.47a2.38,2.38,0,0,1,2.38,2.38v26.69a2,2,0,0,1-2,2h-6.2a2,2,0,0,1-2-2V291.92a2.38,2.38,0,0,1,2.38-2.38Z" transform="translate(1146.03 704.1) rotate(-157.66)"/><path class="cls-33" d="M523.6,376.91h8.16a3.55,3.55,0,0,1,3.55,3.55v70.16a3.44,3.44,0,0,1-3.44,3.44h-8.39a3.44,3.44,0,0,1-3.44-3.44V380.46a3.55,3.55,0,0,1,3.55-3.55Z" transform="matrix(-0.01, -1, 1, -0.01, 9.31, 793.18)"/><path class="cls-34" d="M543.45,399.78h5.47a2.38,2.38,0,0,1,2.38,2.38v26.69a2,2,0,0,1-2,2h-6.2a2,2,0,0,1-2-2V402.16a2.38,2.38,0,0,1,2.38-2.38Z" transform="matrix(-0.01, -1, 1, -0.01, 28.15, 811.53)"/><path class="cls-33" d="M586,471.31h8.16a3.55,3.55,0,0,1,3.55,3.55V545a3.44,3.44,0,0,1-3.44,3.44h-8.39a3.44,3.44,0,0,1-3.44-3.44V474.86a3.55,3.55,0,0,1,3.55-3.55Z" transform="translate(-22.09 950.86) rotate(-90.51)"/><path class="cls-34" d="M605.9,494.18h5.47a2.38,2.38,0,0,1,2.38,2.38v26.69a2,2,0,0,1-2,2h-6.2a2,2,0,0,1-2-2V496.56a2.38,2.38,0,0,1,2.38-2.38Z" transform="translate(-3.25 969.2) rotate(-90.51)"/><path class="cls-35" d="M243.65,359.58l-.08,0c-7.73,1.37-10-2.26-10.9-7.17l-9.31-50.35c-.91-4.92-1.26-9.45,7.65-10.63h0c7.32-1.81,10,2.27,11,7.19L251.27,349C252.17,353.9,252.07,357.49,243.65,359.58Z" transform="translate(-107.55 -153.62)"/><path class="cls-36" d="M230.63,298.52h6.77a2.95,2.95,0,0,1,2.95,2.95v13.16a2.49,2.49,0,0,1-2.49,2.49h-7.68a2.49,2.49,0,0,1-2.49-2.49V301.46A2.95,2.95,0,0,1,230.63,298.52Z" transform="translate(-159.61 -105.95) rotate(-10.48)"/><rect class="cls-37" x="260.14" y="314.71" width="63.82" height="24.4" rx="5.68" transform="translate(511.41 -118.77) rotate(90)"/><path class="cls-21" d="M398.64,297.52h6.08a2.65,2.65,0,0,1,2.65,2.65v62.69a2.56,2.56,0,0,1-2.56,2.56h-6.25a2.56,2.56,0,0,1-2.56-2.56V300.17a2.65,2.65,0,0,1,2.65-2.65Z"/><path class="cls-22" d="M399.64,334.08h4.07a1.77,1.77,0,0,1,1.77,1.77v24.08a1.5,1.5,0,0,1-1.5,1.5h-4.62a1.5,1.5,0,0,1-1.5-1.5V335.86a1.77,1.77,0,0,1,1.77-1.77Z"/><rect class="cls-22" x="396.94" y="322.64" width="9.48" height="9.48" rx="2.21"/><path class="cls-26" d="M359.59,294.91h6.08a2.65,2.65,0,0,1,2.65,2.65v62.69a2.56,2.56,0,0,1-2.56,2.56h-6.25a2.56,2.56,0,0,1-2.56-2.56V297.55a2.65,2.65,0,0,1,2.65-2.65Z"/><path class="cls-22" d="M360.59,331.47h4.07a1.77,1.77,0,0,1,1.77,1.77v24.08a1.5,1.5,0,0,1-1.5,1.5h-4.62a1.5,1.5,0,0,1-1.5-1.5V333.24a1.77,1.77,0,0,1,1.77-1.77Z"/><rect class="cls-22" x="357.89" y="320.02" width="9.48" height="9.48" rx="2.21"/><path class="cls-27" d="M427.88,448.52H434a2.65,2.65,0,0,1,2.65,2.65v62.69a2.56,2.56,0,0,1-2.56,2.56h-6.25a2.56,2.56,0,0,1-2.56-2.56V451.17a2.65,2.65,0,0,1,2.65-2.65Z" transform="translate(-110.91 -150.61) rotate(-0.4)"/><path class="cls-28" d="M429,485.09h4.07a1.77,1.77,0,0,1,1.77,1.77v24.08a1.5,1.5,0,0,1-1.5,1.5h-4.62a1.5,1.5,0,0,1-1.5-1.5V486.86A1.77,1.77,0,0,1,429,485.09Z" transform="translate(-111.02 -150.6) rotate(-0.4)"/><path class="cls-35" d="M498.23,519.23h-.07c-7.74,1.38-10-2.26-10.9-7.17L478,461.72c-.91-4.92-1.26-9.45,7.65-10.63h0c7.32-1.8,10,2.27,10.94,7.19l9.31,50.35C506.76,513.54,506.66,517.13,498.23,519.23Z" transform="translate(-107.55 -153.62)"/><path class="cls-36" d="M485.22,458.16H492a2.95,2.95,0,0,1,2.95,2.95v13.16a2.49,2.49,0,0,1-2.49,2.49h-7.68a2.49,2.49,0,0,1-2.49-2.49V461.1A2.95,2.95,0,0,1,485.22,458.16Z" transform="matrix(0.98, -0.18, 0.18, 0.98, -184.39, -57)"/><rect class="cls-37" x="418.74" y="470.28" width="63.82" height="24.4" rx="5.68" transform="translate(825.59 -121.8) rotate(90)"/><path class="cls-21" d="M607.06,296h6.08a2.65,2.65,0,0,1,2.65,2.65v62.69a2.56,2.56,0,0,1-2.56,2.56H607a2.56,2.56,0,0,1-2.56-2.56V298.62a2.65,2.65,0,0,1,2.65-2.65Z"/><path class="cls-22" d="M608.07,332.54h4.07a1.77,1.77,0,0,1,1.77,1.77v24.08a1.5,1.5,0,0,1-1.5,1.5H607.8a1.5,1.5,0,0,1-1.5-1.5V334.31a1.77,1.77,0,0,1,1.77-1.77Z"/><rect class="cls-22" x="605.36" y="321.09" width="9.48" height="9.48" rx="2.21"/><path class="cls-26" d="M568,293.36h6.08a2.65,2.65,0,0,1,2.65,2.65V358.7a2.56,2.56,0,0,1-2.56,2.56h-6.25a2.56,2.56,0,0,1-2.56-2.56V296A2.65,2.65,0,0,1,568,293.36Z"/><path class="cls-22" d="M569,329.92h4.07a1.77,1.77,0,0,1,1.77,1.77v24.08a1.5,1.5,0,0,1-1.5,1.5h-4.62a1.5,1.5,0,0,1-1.5-1.5V331.7A1.77,1.77,0,0,1,569,329.92Z"/><rect class="cls-22" x="566.32" y="318.48" width="9.48" height="9.48" rx="2.21"/><path class="cls-27" d="M636.31,447h6.08a2.65,2.65,0,0,1,2.65,2.65v62.69a2.56,2.56,0,0,1-2.56,2.56h-6.25a2.56,2.56,0,0,1-2.56-2.56V449.63a2.65,2.65,0,0,1,2.65-2.65Z" transform="translate(-110.89 -149.15) rotate(-0.4)"/><path class="cls-28" d="M637.42,483.54h4.07a1.77,1.77,0,0,1,1.77,1.77V509.4a1.5,1.5,0,0,1-1.5,1.5h-4.62a1.5,1.5,0,0,1-1.5-1.5V485.31a1.77,1.77,0,0,1,1.77-1.77Z" transform="translate(-111 -149.15) rotate(-0.4)"/><path class="cls-35" d="M706.66,517.68l-.07,0c-7.74,1.37-10-2.27-10.9-7.17l-9.31-50.35c-.91-4.93-1.27-9.45,7.65-10.64h0c7.32-1.8,10,2.28,10.94,7.2l9.31,50.35C715.19,512,715.09,515.59,706.66,517.68Z" transform="translate(-107.55 -153.62)"/><path class="cls-36" d="M693.65,456.61h6.77a2.95,2.95,0,0,1,2.95,2.95v13.16a2.49,2.49,0,0,1-2.49,2.49h-7.68a2.49,2.49,0,0,1-2.49-2.49V459.56A2.95,2.95,0,0,1,693.65,456.61Z" transform="translate(-180.64 -19.13) rotate(-10.48)"/><rect class="cls-37" x="627.17" y="468.74" width="63.82" height="24.4" rx="5.68" transform="translate(1032.47 -331.78) rotate(90)"/><path class="cls-21" d="M402.23,143.45h6.08A2.65,2.65,0,0,1,411,146.1v62.69a2.56,2.56,0,0,1-2.56,2.56h-6.25a2.56,2.56,0,0,1-2.56-2.56V146.1a2.65,2.65,0,0,1,2.65-2.65Z"/><path class="cls-22" d="M403.23,180h4.07a1.77,1.77,0,0,1,1.77,1.77v24.08a1.5,1.5,0,0,1-1.5,1.5H403a1.5,1.5,0,0,1-1.5-1.5V181.79a1.77,1.77,0,0,1,1.77-1.77Z"/><rect class="cls-22" x="400.53" y="168.57" width="9.48" height="9.48" rx="2.21"/><path class="cls-26" d="M363.18,140.84h6.08a2.65,2.65,0,0,1,2.65,2.65v62.69a2.56,2.56,0,0,1-2.56,2.56H363.1a2.56,2.56,0,0,1-2.56-2.56V143.48A2.65,2.65,0,0,1,363.18,140.84Z"/><path class="cls-22" d="M364.19,177.4h4.07a1.77,1.77,0,0,1,1.77,1.77v24.08a1.5,1.5,0,0,1-1.5,1.5h-4.62a1.5,1.5,0,0,1-1.5-1.5V179.17A1.77,1.77,0,0,1,364.19,177.4Z"/><rect class="cls-22" x="361.48" y="165.95" width="9.48" height="9.48" rx="2.21"/><path class="cls-27" d="M431.47,294.45h6.08a2.65,2.65,0,0,1,2.65,2.65v62.69a2.56,2.56,0,0,1-2.56,2.56h-6.25a2.56,2.56,0,0,1-2.56-2.56V297.1A2.65,2.65,0,0,1,431.47,294.45Z" transform="translate(-109.83 -150.58) rotate(-0.4)"/><path class="cls-28" d="M432.59,331h4.07a1.77,1.77,0,0,1,1.77,1.77v24.08a1.5,1.5,0,0,1-1.5,1.5h-4.62a1.5,1.5,0,0,1-1.5-1.5V332.79a1.77,1.77,0,0,1,1.77-1.77Z" transform="translate(-109.94 -150.58) rotate(-0.4)"/><path class="cls-35" d="M501.83,365.16h-.08c-7.73,1.38-10-2.26-10.9-7.17l-9.31-50.35c-.91-4.92-1.26-9.45,7.65-10.63h0c7.32-1.8,10,2.27,10.95,7.2l9.31,50.35C510.35,359.47,510.25,363.06,501.83,365.16Z" transform="translate(-107.55 -153.62)"/><path class="cls-36" d="M488.81,304.09h6.77a2.95,2.95,0,0,1,2.95,2.95v13.16a2.49,2.49,0,0,1-2.49,2.49h-7.68a2.49,2.49,0,0,1-2.49-2.49V307a2.95,2.95,0,0,1,2.95-2.95Z" transform="translate(-156.32 -58.91) rotate(-10.48)"/><rect class="cls-37" x="422.34" y="316.21" width="63.82" height="24.4" rx="5.68" transform="translate(675.11 -279.47) rotate(90)"/><path class="cls-21" d="M610.66,218.19h6.08a2.65,2.65,0,0,1,2.65,2.65v62.69a2.56,2.56,0,0,1-2.56,2.56h-6.25a2.56,2.56,0,0,1-2.56-2.56V220.84a2.65,2.65,0,0,1,2.65-2.65Z"/><path class="cls-22" d="M611.66,254.76h4.07a1.77,1.77,0,0,1,1.77,1.77v24.08a1.5,1.5,0,0,1-1.5,1.5h-4.62a1.5,1.5,0,0,1-1.5-1.5V256.53a1.77,1.77,0,0,1,1.77-1.77Z"/><rect class="cls-22" x="608.96" y="243.31" width="9.48" height="9.48" rx="2.21"/><path class="cls-26" d="M571.61,215.58h6.08a2.65,2.65,0,0,1,2.65,2.65v62.69a2.56,2.56,0,0,1-2.56,2.56h-6.25a2.56,2.56,0,0,1-2.56-2.56V218.22A2.65,2.65,0,0,1,571.61,215.58Z"/><path class="cls-22" d="M572.62,252.14h4.07a1.77,1.77,0,0,1,1.77,1.77V278a1.5,1.5,0,0,1-1.5,1.5h-4.62a1.5,1.5,0,0,1-1.5-1.5V253.91a1.77,1.77,0,0,1,1.77-1.77Z"/><rect class="cls-22" x="569.91" y="240.69" width="9.48" height="9.48" rx="2.21"/><path class="cls-27" d="M639.9,369.2H646a2.65,2.65,0,0,1,2.65,2.65v62.69a2.56,2.56,0,0,1-2.56,2.56h-6.25a2.56,2.56,0,0,1-2.56-2.56V371.84a2.65,2.65,0,0,1,2.65-2.65Z" transform="translate(-110.35 -149.13) rotate(-0.4)"/><path class="cls-28" d="M641,405.76h4.07a1.77,1.77,0,0,1,1.77,1.77v24.08a1.5,1.5,0,0,1-1.5,1.5h-4.62a1.5,1.5,0,0,1-1.5-1.5V407.53A1.77,1.77,0,0,1,641,405.76Z" transform="translate(-110.46 -149.13) rotate(-0.4)"/><path class="cls-35" d="M710.26,439.9h-.08c-7.73,1.38-10-2.26-10.9-7.16L690,382.39c-.91-4.92-1.26-9.45,7.65-10.63h0c7.32-1.8,10,2.27,11,7.2l9.31,50.35C718.78,434.21,718.68,437.8,710.26,439.9Z" transform="translate(-107.55 -153.62)"/><path class="cls-36" d="M697.24,378.83H704a2.95,2.95,0,0,1,2.95,2.95v13.16a2.49,2.49,0,0,1-2.49,2.49h-7.68a2.49,2.49,0,0,1-2.49-2.49V381.78a2.95,2.95,0,0,1,2.95-2.95Z" transform="translate(-166.44 -19.77) rotate(-10.48)"/><rect class="cls-37" x="630.77" y="390.95" width="63.82" height="24.4" rx="5.68" transform="translate(958.28 -413.15) rotate(90)"/><path class="cls-21" d="M577.3,140.41h6.08a2.65,2.65,0,0,1,2.65,2.65v62.69a2.56,2.56,0,0,1-2.56,2.56h-6.25a2.56,2.56,0,0,1-2.56-2.56V143.06A2.65,2.65,0,0,1,577.3,140.41Z"/><path class="cls-22" d="M578.3,177h4.07a1.77,1.77,0,0,1,1.77,1.77v24.08a1.5,1.5,0,0,1-1.5,1.5H578a1.5,1.5,0,0,1-1.5-1.5V178.74A1.77,1.77,0,0,1,578.3,177Z"/><rect class="cls-22" x="575.6" y="165.52" width="9.48" height="9.48" rx="2.21"/><path class="cls-26" d="M538.25,137.79h6.08a2.65,2.65,0,0,1,2.65,2.65v62.69a2.56,2.56,0,0,1-2.56,2.56h-6.25a2.56,2.56,0,0,1-2.56-2.56V140.44a2.65,2.65,0,0,1,2.65-2.65Z"/><path class="cls-22" d="M539.26,174.36h4.07a1.77,1.77,0,0,1,1.77,1.77v24.08a1.5,1.5,0,0,1-1.5,1.5H539a1.5,1.5,0,0,1-1.5-1.5V176.13A1.77,1.77,0,0,1,539.26,174.36Z"/><rect class="cls-22" x="536.55" y="162.91" width="9.48" height="9.48" rx="2.21"/><path class="cls-27" d="M606.54,291.41h6.08a2.65,2.65,0,0,1,2.65,2.65v62.69a2.56,2.56,0,0,1-2.56,2.56h-6.25a2.56,2.56,0,0,1-2.56-2.56V294.06a2.65,2.65,0,0,1,2.65-2.65Z" transform="translate(-109.8 -149.36) rotate(-0.4)"/><path class="cls-28" d="M607.66,328h4.07a1.77,1.77,0,0,1,1.77,1.77v24.08a1.5,1.5,0,0,1-1.5,1.5h-4.62a1.5,1.5,0,0,1-1.5-1.5V329.75A1.77,1.77,0,0,1,607.66,328Z" transform="translate(-109.92 -149.36) rotate(-0.4)"/><path class="cls-35" d="M676.9,362.11l-.08,0c-7.73,1.37-10-2.27-10.9-7.17l-9.31-50.35c-.91-4.92-1.26-9.45,7.65-10.63h0c7.32-1.81,10,2.27,11,7.19l9.3,50.35C685.42,356.43,685.32,360,676.9,362.11Z" transform="translate(-107.55 -153.62)"/><path class="cls-36" d="M663.88,301h6.77A2.95,2.95,0,0,1,673.6,304v13.16a2.49,2.49,0,0,1-2.49,2.49h-7.68a2.49,2.49,0,0,1-2.49-2.49V304a2.95,2.95,0,0,1,2.95-2.95Z" transform="translate(-152.85 -27.14) rotate(-10.48)"/><rect class="cls-37" x="597.41" y="313.17" width="63.82" height="24.4" rx="5.68" transform="translate(847.14 -457.58) rotate(90)"/><rect class="cls-38" x="191.05" y="409.22" width="63.82" height="24.4" rx="5.68" transform="translate(536.83 44.84) rotate(90)"/><rect class="cls-39" x="110.67" y="269.11" width="9.48" height="9.48" rx="2.21"/><rect class="cls-39" x="110.67" y="248.09" width="9.48" height="9.48" rx="2.21"/><path class="cls-29" d="M464.7,373.3h6.08a2.65,2.65,0,0,1,2.65,2.65v62.69a2.56,2.56,0,0,1-2.56,2.56h-6.25a2.56,2.56,0,0,1-2.56-2.56V375.95a2.65,2.65,0,0,1,2.65-2.65Z" transform="translate(-158.47 -86.41) rotate(-7.8)"/><path class="cls-28" d="M467.91,409.71H472a1.77,1.77,0,0,1,1.77,1.77v24.08a1.5,1.5,0,0,1-1.5,1.5h-4.62a1.5,1.5,0,0,1-1.5-1.5V411.49a1.77,1.77,0,0,1,1.77-1.77Z" transform="translate(-160.64 -85.96) rotate(-7.8)"/><path class="cls-27" d="M477.23,370.33h6.08A2.65,2.65,0,0,1,486,373v62.69a2.56,2.56,0,0,1-2.56,2.56h-6.25a2.56,2.56,0,0,1-2.56-2.56V373A2.65,2.65,0,0,1,477.23,370.33Z" transform="translate(873.07 629.8) rotate(177.06)"/><path class="cls-28" d="M477.4,374.33h4.07a1.77,1.77,0,0,1,1.77,1.77v24.08a1.5,1.5,0,0,1-1.5,1.5h-4.62a1.5,1.5,0,0,1-1.5-1.5V376.1a1.77,1.77,0,0,1,1.77-1.77Z" transform="translate(870.57 597.32) rotate(177.06)"/><path class="cls-32" d="M518.27,397.24h8.16a3.55,3.55,0,0,1,3.55,3.55V461.7a3.44,3.44,0,0,1-3.44,3.44h-8.39a3.44,3.44,0,0,1-3.44-3.44V400.79A3.55,3.55,0,0,1,518.27,397.24Z" transform="translate(-19.21 797.57) rotate(-89.69)"/><path class="cls-31" d="M535.91,417.6h5.47a2.38,2.38,0,0,1,2.38,2.38v23a2,2,0,0,1-2,2h-6.2a2,2,0,0,1-2-2V420a2.38,2.38,0,0,1,2.38-2.38Z" transform="translate(-3.1 813.95) rotate(-89.69)"/><rect class="cls-38" x="411.9" y="392.49" width="63.82" height="24.4" rx="5.68" transform="translate(740.95 -192.74) rotate(90)"/><rect class="cls-39" x="331.52" y="252.38" width="9.48" height="9.48" rx="2.21"/><rect class="cls-39" x="331.52" y="231.36" width="9.48" height="9.48" rx="2.21"/><path class="cls-29" d="M462.59,373.3h6.08a2.65,2.65,0,0,1,2.65,2.65v62.69a2.56,2.56,0,0,1-2.56,2.56h-6.25a2.56,2.56,0,0,1-2.56-2.56V375.95A2.65,2.65,0,0,1,462.59,373.3Z" transform="translate(-158.49 -86.7) rotate(-7.8)"/><path class="cls-28" d="M465.81,409.71h4.07a1.77,1.77,0,0,1,1.77,1.77v24.08a1.5,1.5,0,0,1-1.5,1.5h-4.62a1.5,1.5,0,0,1-1.5-1.5V411.49a1.77,1.77,0,0,1,1.77-1.77Z" transform="translate(-160.66 -86.25) rotate(-7.8)"/><path class="cls-27" d="M475.13,370.33h6.08a2.65,2.65,0,0,1,2.65,2.65v62.69a2.56,2.56,0,0,1-2.56,2.56H475a2.56,2.56,0,0,1-2.56-2.56V373a2.65,2.65,0,0,1,2.65-2.65Z" transform="translate(868.87 629.91) rotate(177.06)"/><path class="cls-28" d="M475.29,374.33h4.07a1.77,1.77,0,0,1,1.77,1.77v24.08a1.5,1.5,0,0,1-1.5,1.5H475a1.5,1.5,0,0,1-1.5-1.5V376.1a1.77,1.77,0,0,1,1.77-1.77Z" transform="translate(866.37 597.43) rotate(177.06)"/><path class="cls-32" d="M516.17,397.24h8.16a3.55,3.55,0,0,1,3.55,3.55V461.7a3.44,3.44,0,0,1-3.44,3.44h-8.39a3.44,3.44,0,0,1-3.44-3.44V400.79a3.55,3.55,0,0,1,3.55-3.55Z" transform="translate(-21.3 795.47) rotate(-89.69)"/><path class="cls-31" d="M533.81,417.6h5.47a2.38,2.38,0,0,1,2.38,2.38v23a2,2,0,0,1-2,2h-6.2a2,2,0,0,1-2-2V420A2.38,2.38,0,0,1,533.81,417.6Z" transform="translate(-5.19 811.85) rotate(-89.69)"/><rect class="cls-38" x="409.8" y="392.49" width="63.82" height="24.4" rx="5.68" transform="translate(738.85 -190.64) rotate(90)"/><rect class="cls-39" x="329.42" y="252.38" width="9.48" height="9.48" rx="2.21"/><rect class="cls-39" x="329.42" y="231.36" width="9.48" height="9.48" rx="2.21"/><rect class="cls-40" x="327.96" y="291.61" width="15.45" height="67.68" transform="translate(-37.57 -212.88) rotate(11.26)"/><rect class="cls-41" x="327.78" y="338.82" width="8.75" height="8.75" transform="translate(-34.17 -211.85) rotate(11.26)"/><path class="cls-4" d="M180.54,376.13H234.7a5,5,0,0,1,5,5v22.76a5,5,0,0,1-5,5H180.81a3.25,3.25,0,0,1-3.25-3.25V379.11A3,3,0,0,1,180.54,376.13Z"/><rect class="cls-5" x="177.56" y="379.18" width="60.37" height="26.95"/><rect class="cls-6" x="177.56" y="380.34" width="60.37" height="0.68"/><rect class="cls-6" x="177.56" y="381.53" width="60.37" height="0.68"/><rect class="cls-6" x="177.56" y="382.71" width="60.37" height="0.68"/><rect class="cls-6" x="177.56" y="383.89" width="60.37" height="0.68"/><rect class="cls-6" x="177.56" y="385.07" width="60.37" height="0.68"/><rect class="cls-6" x="177.56" y="386.26" width="60.37" height="0.68"/><rect class="cls-6" x="177.56" y="387.44" width="60.37" height="0.68"/><rect class="cls-6" x="177.56" y="388.62" width="60.37" height="0.68"/><rect class="cls-6" x="177.56" y="389.8" width="60.37" height="0.68"/><rect class="cls-6" x="177.56" y="390.98" width="60.37" height="0.68"/><rect class="cls-6" x="177.56" y="392.17" width="60.37" height="0.68"/><rect class="cls-6" x="177.56" y="393.35" width="60.37" height="0.68"/><rect class="cls-6" x="177.56" y="394.53" width="60.37" height="0.68"/><rect class="cls-6" x="177.56" y="395.71" width="60.37" height="0.68"/><rect class="cls-6" x="177.56" y="396.9" width="60.37" height="0.68"/><rect class="cls-6" x="177.56" y="398.08" width="60.37" height="0.68"/><rect class="cls-6" x="177.56" y="399.26" width="60.37" height="0.68"/><rect class="cls-6" x="177.56" y="400.44" width="60.37" height="0.68"/><rect class="cls-6" x="177.56" y="401.62" width="60.37" height="0.68"/><rect class="cls-6" x="177.56" y="402.81" width="60.37" height="0.68"/><rect class="cls-6" x="177.56" y="403.99" width="60.37" height="0.68"/><rect class="cls-6" x="177.56" y="405.17" width="60.37" height="0.68"/><path class="cls-4" d="M224.65,472.45H465.33a5,5,0,0,1,5,5v43.27a5,5,0,0,1-5,5H224.92a3.25,3.25,0,0,1-3.25-3.25V475.43A3,3,0,0,1,224.65,472.45Z"/><rect class="cls-5" x="221.67" y="477.41" width="241.71" height="43.86"/><rect class="cls-6" x="221.67" y="479.31" width="241.71" height="1.1"/><rect class="cls-6" x="221.67" y="481.24" width="241.71" height="1.1"/><rect class="cls-6" x="221.67" y="483.16" width="241.71" height="1.1"/><rect class="cls-6" x="221.67" y="485.09" width="241.71" height="1.1"/><rect class="cls-6" x="221.67" y="487.01" width="241.71" height="1.1"/><rect class="cls-6" x="221.67" y="488.94" width="241.71" height="1.1"/><rect class="cls-6" x="221.67" y="490.86" width="241.71" height="1.1"/><rect class="cls-6" x="221.67" y="492.78" width="241.71" height="1.1"/><rect class="cls-6" x="221.67" y="494.71" width="241.71" height="1.1"/><rect class="cls-6" x="221.67" y="496.63" width="241.71" height="1.1"/><rect class="cls-6" x="221.67" y="498.56" width="241.71" height="1.1"/><rect class="cls-6" x="221.67" y="500.48" width="241.71" height="1.1"/><rect class="cls-6" x="221.67" y="502.41" width="241.71" height="1.1"/><rect class="cls-6" x="221.67" y="504.33" width="241.71" height="1.1"/><rect class="cls-6" x="221.67" y="506.25" width="241.71" height="1.1"/><rect class="cls-6" x="221.67" y="508.18" width="241.71" height="1.1"/><rect class="cls-6" x="221.67" y="510.1" width="241.71" height="1.1"/><rect class="cls-6" x="221.67" y="512.03" width="241.71" height="1.1"/><rect class="cls-6" x="221.67" y="513.95" width="241.71" height="1.1"/><rect class="cls-6" x="221.67" y="515.88" width="241.71" height="1.1"/><rect class="cls-6" x="221.67" y="517.8" width="241.71" height="1.1"/><rect class="cls-6" x="221.67" y="519.72" width="241.71" height="1.1"/><rect class="cls-7" x="495.42" y="525.63" width="3.04" height="4.75"/><rect class="cls-7" x="495.42" y="562.29" width="3.04" height="5.42"/><path class="cls-8" d="M603,684v31.91h3v5.31H304.17A17.28,17.28,0,0,1,286.89,704v-7.31a17.28,17.28,0,0,1,17.28-17.28H606V684Z" transform="translate(-107.55 -153.62)"/><path class="cls-9" d="M603,684v31.91H376.51a8,8,0,0,1-8-8V692a8,8,0,0,1,8-8Z" transform="translate(-107.55 -153.62)"/><path class="cls-8" d="M585.64,689.66a20,20,0,0,1,3.78,7.56A20.76,20.76,0,0,1,588,710.93h-.37q-3-6.37-6-12.76a17.68,17.68,0,0,1-.71,3.07,20.07,20.07,0,0,1-7.19,9.69h-.37a21.25,21.25,0,0,0,.94-13,20.72,20.72,0,0,0-4.25-8.27Z" transform="translate(-107.55 -153.62)"/><path class="cls-4" d="M624,438.11H754.82a5,5,0,0,1,5,5v19.78a5,5,0,0,1-5,5H624.23a3.25,3.25,0,0,1-3.25-3.25V441.09A3,3,0,0,1,624,438.11Z"/><rect class="cls-5" x="620.97" y="440.88" width="134.94" height="24.49"/><rect class="cls-6" x="620.97" y="441.94" width="134.94" height="0.61"/><rect class="cls-6" x="620.97" y="443.01" width="134.94" height="0.61"/><rect class="cls-6" x="620.97" y="444.09" width="134.94" height="0.61"/><rect class="cls-6" x="620.97" y="445.16" width="134.94" height="0.61"/><rect class="cls-6" x="620.97" y="446.24" width="134.94" height="0.61"/><rect class="cls-6" x="620.97" y="447.31" width="134.94" height="0.61"/><rect class="cls-6" x="620.97" y="448.39" width="134.94" height="0.61"/><rect class="cls-6" x="620.97" y="449.46" width="134.94" height="0.61"/><rect class="cls-6" x="620.97" y="450.53" width="134.94" height="0.61"/><rect class="cls-6" x="620.97" y="451.61" width="134.94" height="0.61"/><rect class="cls-6" x="620.97" y="452.68" width="134.94" height="0.61"/><rect class="cls-6" x="620.97" y="453.76" width="134.94" height="0.61"/><rect class="cls-6" x="620.97" y="454.83" width="134.94" height="0.61"/><rect class="cls-6" x="620.97" y="455.91" width="134.94" height="0.61"/><rect class="cls-6" x="620.97" y="456.98" width="134.94" height="0.61"/><rect class="cls-6" x="620.97" y="458.05" width="134.94" height="0.61"/><rect class="cls-6" x="620.97" y="459.13" width="134.94" height="0.61"/><rect class="cls-6" x="620.97" y="460.2" width="134.94" height="0.61"/><rect class="cls-6" x="620.97" y="461.28" width="134.94" height="0.61"/><rect class="cls-6" x="620.97" y="462.35" width="134.94" height="0.61"/><rect class="cls-6" x="620.97" y="463.43" width="134.94" height="0.61"/><rect class="cls-6" x="620.97" y="464.5" width="134.94" height="0.61"/><rect class="cls-7" x="773.8" y="467.8" width="1.7" height="2.65"/><rect class="cls-7" x="773.8" y="488.26" width="1.7" height="3.03"/><path class="cls-8" d="M881.35,624.08v17.81h1.7v3H714.54a9.65,9.65,0,0,1-9.65-9.65v-4.08a9.65,9.65,0,0,1,9.65-9.65H883.05v2.6Z" transform="translate(-107.55 -153.62)"/><path class="cls-9" d="M881.35,624.08v17.81H754.92a4.45,4.45,0,0,1-4.45-4.45v-8.91a4.45,4.45,0,0,1,4.45-4.45Z" transform="translate(-107.55 -153.62)"/><path class="cls-8" d="M871.68,627.23a11.23,11.23,0,0,1,2.11,4.22,11.64,11.64,0,0,1-.79,7.66h-.21L869.43,632a10.21,10.21,0,0,1-.39,1.72,11.25,11.25,0,0,1-4,5.41h-.2a11.91,11.91,0,0,0,.52-7.26,11.65,11.65,0,0,0-2.37-4.62Z" transform="translate(-107.55 -153.62)"/><path class="cls-4" d="M647.07,403.57h76.72a5,5,0,0,1,5,5v8.2a5,5,0,0,1-5,5H647.34a3.25,3.25,0,0,1-3.25-3.25V406.54A3,3,0,0,1,647.07,403.57Z"/><rect class="cls-5" x="644.09" y="405.25" width="82.31" height="14.93"/><rect class="cls-6" x="644.09" y="405.9" width="82.31" height="0.37"/><rect class="cls-6" x="644.09" y="406.56" width="82.31" height="0.37"/><rect class="cls-6" x="644.09" y="407.21" width="82.31" height="0.37"/><rect class="cls-6" x="644.09" y="407.87" width="82.31" height="0.37"/><rect class="cls-6" x="644.09" y="408.52" width="82.31" height="0.37"/><rect class="cls-6" x="644.09" y="409.18" width="82.31" height="0.37"/><rect class="cls-6" x="644.09" y="409.83" width="82.31" height="0.37"/><rect class="cls-6" x="644.09" y="410.49" width="82.31" height="0.37"/><rect class="cls-6" x="644.09" y="411.14" width="82.31" height="0.37"/><rect class="cls-6" x="644.09" y="411.8" width="82.31" height="0.37"/><rect class="cls-6" x="644.09" y="412.46" width="82.31" height="0.37"/><rect class="cls-6" x="644.09" y="413.11" width="82.31" height="0.37"/><rect class="cls-6" x="644.09" y="413.77" width="82.31" height="0.37"/><rect class="cls-6" x="644.09" y="414.42" width="82.31" height="0.37"/><rect class="cls-6" x="644.09" y="415.08" width="82.31" height="0.37"/><rect class="cls-6" x="644.09" y="415.73" width="82.31" height="0.37"/><rect class="cls-6" x="644.09" y="416.39" width="82.31" height="0.37"/><rect class="cls-6" x="644.09" y="417.04" width="82.31" height="0.37"/><rect class="cls-6" x="644.09" y="417.7" width="82.31" height="0.37"/><rect class="cls-6" x="644.09" y="418.35" width="82.31" height="0.37"/><rect class="cls-6" x="644.09" y="419.01" width="82.31" height="0.37"/><rect class="cls-6" x="644.09" y="419.66" width="82.31" height="0.37"/><rect class="cls-7" x="737.31" y="421.67" width="1.03" height="1.62"/><rect class="cls-7" x="737.31" y="434.16" width="1.03" height="1.85"/><path class="cls-8" d="M844.86,576.92v10.86h1v1.81H743.11a5.88,5.88,0,0,1-5.88-5.88v-2.49a5.89,5.89,0,0,1,5.88-5.89H845.89v1.59Z" transform="translate(-107.55 -153.62)"/><path class="cls-9" d="M844.86,576.92v10.86H767.74a2.71,2.71,0,0,1-2.71-2.71v-5.44a2.71,2.71,0,0,1,2.71-2.71Z" transform="translate(-107.55 -153.62)"/><path class="cls-8" d="M839,578.84a6.9,6.9,0,0,1,1.28,2.58,7.06,7.06,0,0,1-.48,4.67h-.12l-2-4.35a6.52,6.52,0,0,1-.24,1,6.88,6.88,0,0,1-2.45,3.3h-.13a7.08,7.08,0,0,0-1.12-7.25Z" transform="translate(-107.55 -153.62)"/><path class="cls-4" d="M49.91,436.43H101a3.58,3.58,0,0,1,3.58,3.58v5a3.58,3.58,0,0,1-3.58,3.58H50.1a2.35,2.35,0,0,1-2.35-2.35v-7.65a2.15,2.15,0,0,1,2.15-2.15Z"/><rect class="cls-5" x="47.75" y="437.56" width="55.24" height="10.02"/><rect class="cls-6" x="47.75" y="437.99" width="55.24" height="0.25"/><rect class="cls-6" x="47.75" y="438.43" width="55.24" height="0.25"/><rect class="cls-6" x="47.75" y="438.87" width="55.24" height="0.25"/><rect class="cls-6" x="47.75" y="439.31" width="55.24" height="0.25"/><rect class="cls-6" x="47.75" y="439.75" width="55.24" height="0.25"/><rect class="cls-6" x="47.75" y="440.19" width="55.24" height="0.25"/><rect class="cls-6" x="47.75" y="440.63" width="55.24" height="0.25"/><rect class="cls-6" x="47.75" y="441.07" width="55.24" height="0.25"/><rect class="cls-6" x="47.75" y="441.51" width="55.24" height="0.25"/><rect class="cls-6" x="47.75" y="441.95" width="55.24" height="0.25"/><rect class="cls-6" x="47.75" y="442.39" width="55.24" height="0.25"/><rect class="cls-6" x="47.75" y="442.83" width="55.24" height="0.25"/><rect class="cls-6" x="47.75" y="443.27" width="55.24" height="0.25"/><rect class="cls-6" x="47.75" y="443.71" width="55.24" height="0.25"/><rect class="cls-6" x="47.75" y="444.15" width="55.24" height="0.25"/><rect class="cls-6" x="47.75" y="444.59" width="55.24" height="0.25"/><rect class="cls-6" x="47.75" y="445.03" width="55.24" height="0.25"/><rect class="cls-6" x="47.75" y="445.47" width="55.24" height="0.25"/><rect class="cls-6" x="47.75" y="445.91" width="55.24" height="0.25"/><rect class="cls-6" x="47.75" y="446.35" width="55.24" height="0.25"/><rect class="cls-6" x="47.75" y="446.79" width="55.24" height="0.25"/><rect class="cls-6" x="47.75" y="447.23" width="55.24" height="0.25"/><rect class="cls-7" x="110.32" y="448.58" width="0.69" height="1.09"/><rect class="cls-7" x="110.32" y="456.96" width="0.69" height="1.24"/><path class="cls-8" d="M217.87,603.29v7.29h.69v1.22h-69a4,4,0,0,1-4-3.95v-1.67a4,4,0,0,1,4-3.95h69v1.06Z" transform="translate(-107.55 -153.62)"/><path class="cls-9" d="M217.87,603.29v7.29H166.11a1.81,1.81,0,0,1-1.82-1.82v-3.64a1.82,1.82,0,0,1,1.82-1.83Z" transform="translate(-107.55 -153.62)"/><path class="cls-8" d="M213.91,604.58a4.6,4.6,0,0,1,.86,1.73,4.72,4.72,0,0,1-.32,3.13h-.09L213,606.53a4.09,4.09,0,0,1-.16.7,4.53,4.53,0,0,1-1.65,2.21h-.08a4.79,4.79,0,0,0,.21-3,4.67,4.67,0,0,0-1-1.89Z" transform="translate(-107.55 -153.62)"/><polygon class="cls-42" points="275.35 508.79 266.47 501.4 282.66 478.83 291.55 486.22 275.35 508.79"/><rect class="cls-42" x="315.32" y="532.27" width="11.23" height="28.52"/><path class="cls-42" d="M407.75,500.77l-15.35-6.09-14.51,43,15.34,6.09a46.69,46.69,0,0,0,11.61-17.18A52.78,52.78,0,0,0,407.75,500.77Z" transform="translate(-107.55 -153.62)"/><path class="cls-42" d="M439,432.12l-4.28,12.28H425.1s2.4,32.34,9.61,38.8,21.62-4.52,26.42-16.81,7.21-17.46,7.21-17.46-10.81-7.11-11.41-12.29S439,432.12,439,432.12Z" transform="translate(-107.55 -153.62)"/><path class="cls-42" d="M461.19,420.06c0,13-7.32,23-16.35,23s-16.35-10-16.35-23,7.32-23.62,16.35-23.62S461.19,407,461.19,420.06Z" transform="translate(-107.55 -153.62)"/><path class="cls-43" d="M425.14,446.85s-13.66-28.81-1.88-48.08,22.6-23.83,30.13-22.82,18.37,8.62,21.67,20.79,6.12,22.82,8,31.95,0,22.22,0,22.22-16-4.06-19.31-3-8.47-8.62-8-11.67,8-11.57.94-19.18-14.48-9.63-15-15.72-1.94,5.07-4.77,6.6a73.72,73.72,0,0,0-8,5.76s.47,15.95,7.06,21,4.71,7.61,2.35,10.14S425.14,446.85,425.14,446.85Z" transform="translate(-107.55 -153.62)"/><path class="cls-44" d="M431,446.12l-20.49.85s2.35,48.17,0,53.24,0,15.72,0,15.72l4.24,58.16,32.49-6.35s44.74,7.1,50.39,36.51-1.88-57.3-1.88-57.3l-8.48-45.22-9,.51s-8-41.44,2.36-52.16S462,447.66,462,447.66s1.36,14.52-7.41,21.12-12.48,7.6-12.48,7.6-11.36-14.2-10.42-20.79S431,446.12,431,446.12Z" transform="translate(-107.55 -153.62)"/><path class="cls-45" d="M483.84,633s23.55-15.21,11.78-35.49-49-37-49-37l-34.38-9.34s-2.35,3.76-5.65,9.34-28.72,86.2-28.72,86.2,8.94,12.17,15.54,6.09,41.91-44.12,45-55.78,5,1,5.89,10.65.47,21.8,7.06,24.84S483.84,633,483.84,633Z" transform="translate(-107.55 -153.62)"/><path class="cls-45" d="M407.56,622.36l12.24,77.58s10.36,2.54,15.07,0S446.17,633,446.17,633l6.59-38.34-18.83-14.9Z" transform="translate(-107.55 -153.62)"/><path class="cls-46" d="M405.32,450a5.82,5.82,0,0,0-2,2c-3.79,6.14-19.5,32.46-16.3,41.58,2.46,7,14.74,11.15,22.4,13.08a5.76,5.76,0,0,0,7-5.27c1.11-10.45,3.13-30.12,3.13-35.1,0-3.62-1.07-9.6-2.08-14.45-.82-4-4.93-6-8.25-4.05Z" transform="translate(-107.55 -153.62)"/><polygon class="cls-47" points="325.93 430.48 281.52 429.89 262.77 343.82 308.17 343.82 325.93 430.48"/><polygon class="cls-48" points="379.1 408.46 325.93 430.48 308.17 343.82 356.32 332.21 379.1 408.46"/><polyline class="cls-49" points="307.74 343.81 315.7 380.91 315.74 381.07 326.47 430.26"/><polygon class="cls-50" points="349.87 372.86 334.44 375.52 328.48 358.53 345.12 352.89 349.87 372.86"/><path class="cls-42" d="M485.47,515.58l12.71,23.92-33.43,12.68-26.37-3.55s-2.83,2.53,0,3.55,6.59,0,6.59,0,.12,7.28-3.71,7.7-12.77,4.47-12.77,4.47,3.76,7.1,8,8.11,23.08-6.59,26.85-9.13,44.11-5.07,48.9-14.19S504.31,508,504.31,508l-4.24-7.61-17.43,7.1Z" transform="translate(-107.55 -153.62)"/><ellipse class="cls-42" cx="279.01" cy="403.87" rx="9.96" ry="6.34"/><path class="cls-51" d="M480.59,445.25a7.66,7.66,0,0,0-6.08,4.95c-3.49,9-10.78,29.78-8.67,41.51a42.76,42.76,0,0,0,6.28,16.39,7.22,7.22,0,0,0,9,2.74l18.54-8.2a8.2,8.2,0,0,0,4.69-7.93c-.31-6.75-1.24-17.8-3.95-24.24-2.85-6.75-9.15-16.53-12.74-21.89a7.37,7.37,0,0,0-7.05-3.33Z" transform="translate(-107.55 -153.62)"/><path class="cls-52" d="M383.07,670c-1.58,7.71-7.3,6.35-11.71,4s-8.19-7-4.28-12.42c3.79-5.22,6.89-9.91,12.94-6.73C386.52,658.29,384.4,663.55,383.07,670Z" transform="translate(-107.55 -153.62)"/><path class="cls-53" d="M440.81,722.15c2.38,7.67-5.55,9.15-12.4,9.15s-14.23-2.47-12.39-9.15c1.79-6.48,3-12.15,12.39-12.15C438.5,710,438.81,715.73,440.81,722.15Z" transform="translate(-107.55 -153.62)"/><rect class="cls-54" x="659.68" y="144.46" width="87.91" height="2.75"/><rect class="cls-55" x="698.08" y="144.96" width="8.24" height="19.48"/><polygon class="cls-54" points="736.6 189.57 668.84 189.57 684.41 160.03 720.12 160.03 736.6 189.57"/><path class="cls-4" d="M35.2,456.23h76.72a5,5,0,0,1,5,5v8.2a5,5,0,0,1-5,5H35.47a3.25,3.25,0,0,1-3.25-3.25V459.21A3,3,0,0,1,35.2,456.23Z"/><rect class="cls-5" x="32.22" y="457.92" width="82.31" height="14.93"/><rect class="cls-6" x="32.22" y="458.57" width="82.31" height="0.37"/><rect class="cls-6" x="32.22" y="459.22" width="82.31" height="0.37"/><rect class="cls-6" x="32.22" y="459.88" width="82.31" height="0.37"/><rect class="cls-6" x="32.22" y="460.53" width="82.31" height="0.37"/><rect class="cls-6" x="32.22" y="461.19" width="82.31" height="0.37"/><rect class="cls-6" x="32.22" y="461.84" width="82.31" height="0.37"/><rect class="cls-6" x="32.22" y="462.5" width="82.31" height="0.37"/><rect class="cls-6" x="32.22" y="463.16" width="82.31" height="0.37"/><rect class="cls-6" x="32.22" y="463.81" width="82.31" height="0.37"/><rect class="cls-6" x="32.22" y="464.47" width="82.31" height="0.37"/><rect class="cls-6" x="32.22" y="465.12" width="82.31" height="0.37"/><rect class="cls-6" x="32.22" y="465.78" width="82.31" height="0.37"/><rect class="cls-6" x="32.22" y="466.43" width="82.31" height="0.37"/><rect class="cls-6" x="32.22" y="467.09" width="82.31" height="0.37"/><rect class="cls-6" x="32.22" y="467.74" width="82.31" height="0.37"/><rect class="cls-6" x="32.22" y="468.4" width="82.31" height="0.37"/><rect class="cls-6" x="32.22" y="469.05" width="82.31" height="0.37"/><rect class="cls-6" x="32.22" y="469.71" width="82.31" height="0.37"/><rect class="cls-6" x="32.22" y="470.36" width="82.31" height="0.37"/><rect class="cls-6" x="32.22" y="471.02" width="82.31" height="0.37"/><rect class="cls-6" x="32.22" y="471.67" width="82.31" height="0.37"/><rect class="cls-6" x="32.22" y="472.33" width="82.31" height="0.37"/><rect class="cls-7" x="125.43" y="474.34" width="1.03" height="1.62"/><rect class="cls-7" x="125.43" y="486.82" width="1.03" height="1.85"/><path class="cls-8" d="M233,629.58v10.87h1v1.81H131.23a5.89,5.89,0,0,1-5.88-5.89v-2.49a5.88,5.88,0,0,1,5.88-5.88H234v1.58Z" transform="translate(-107.55 -153.62)"/><path class="cls-9" d="M233,629.58v10.87H155.87a2.72,2.72,0,0,1-2.72-2.72V632.3a2.72,2.72,0,0,1,2.72-2.72Z" transform="translate(-107.55 -153.62)"/><path class="cls-8" d="M227.08,631.51a6.69,6.69,0,0,1,1.29,2.57,7.1,7.1,0,0,1-.48,4.67h-.13l-2-4.34a5.69,5.69,0,0,1-.24,1,6.77,6.77,0,0,1-2.45,3.3h-.12a7.3,7.3,0,0,0,.32-4.43,7.06,7.06,0,0,0-1.45-2.81Z" transform="translate(-107.55 -153.62)"/><circle class="cls-56" cx="521.77" cy="70.88" r="9.67"/><circle class="cls-57" cx="747.59" cy="386.26" r="6.14"/><circle class="cls-58" cx="45.6" cy="324.76" r="6.14"/><circle class="cls-59" cx="542.93" cy="65.94" r="6.14"/></svg>