<svg id="Layer_1" data-name="Layer 1" xmlns="http://www.w3.org/2000/svg" viewBox="0 0 841.77 493.15"><defs><style>.cls-1,.cls-2,.cls-39,.cls-7,.cls-8{fill:#e8428c;}.cls-2{opacity:0.51;}.cls-10,.cls-3,.cls-32,.cls-33,.cls-4,.cls-40,.cls-41,.cls-43{fill:none;}.cls-3{stroke:#e8428c;}.cls-10,.cls-3,.cls-32,.cls-33,.cls-38,.cls-4,.cls-40,.cls-41,.cls-43{stroke-miterlimit:10;}.cls-3,.cls-32,.cls-38,.cls-41{stroke-width:3px;}.cls-3,.cls-8{opacity:0.89;}.cls-4{stroke:#262b63;opacity:0.82;}.cls-10,.cls-4{stroke-width:5px;}.cls-5{fill:#a8266f;opacity:0.76;}.cls-6{fill:#f6adcd;}.cls-7{opacity:0.81;}.cls-9{fill:#4c3f36;}.cls-10,.cls-33,.cls-38,.cls-40,.cls-41{stroke:#000;}.cls-11{fill:#27478d;}.cls-12{fill:#5770b6;}.cls-13{fill:#371036;}.cls-14{fill:#efa897;}.cls-15{fill:#ffd765;}.cls-16{fill:#f9b483;}.cls-17{fill:#133358;}.cls-18{fill:#284586;}.cls-19{fill:#f8dcbe;}.cls-20{fill:#243964;}.cls-21{fill:#b5d2ee;}.cls-22{fill:#2c3861;}.cls-23{fill:#1b4688;}.cls-24{fill:#213e7a;}.cls-25{fill:#f79544;}.cls-26{fill:#faaf7d;}.cls-27{fill:#f79647;}.cls-28{fill:#f89747;}.cls-29{fill:#f4a773;}.cls-30{fill:#203662;}.cls-31{fill:#f38634;}.cls-32{stroke:#5770b6;}.cls-33{stroke-width:7px;}.cls-34{fill:#7a563d;}.cls-35{fill:#2c4992;}.cls-36{fill:#f4f1ef;}.cls-37{fill:#ec802c;}.cls-39{opacity:0.8;}.cls-40{stroke-width:2px;}.cls-42{fill:#0a1827;}.cls-43{stroke:#f7ec13;}</style></defs><path class="cls-1" d="M950.21,358.55" transform="translate(-74.52 -209.19)"/><circle class="cls-1" cx="613.98" cy="406.68" r="18.4"/><circle class="cls-2" cx="471.49" cy="215.93" r="25.89"/><circle class="cls-2" cx="481.42" cy="392.65" r="25.89"/><rect class="cls-3" x="181.06" y="1.5" width="533.94" height="472.61"/><rect class="cls-4" x="125.76" y="22.96" width="620.14" height="452.36"/><ellipse class="cls-5" cx="475.11" cy="480.81" rx="323.75" ry="12.35"/><circle class="cls-6" cx="158.8" cy="209.03" r="158.8"/><circle class="cls-7" cx="682.97" cy="223.55" r="158.8"/><ellipse class="cls-8" cx="258.59" cy="259.74" rx="158.8" ry="192.97"/><path d="M368.82,446.66h36.12a12.84,12.84,0,0,1,12.84,12.84v6.12a0,0,0,0,1,0,0H356a0,0,0,0,1,0,0V459.5A12.84,12.84,0,0,1,368.82,446.66Z"/><rect x="340.04" y="388.72" width="112.77" height="7.86"/><rect class="cls-9" x="334.86" y="384.32" width="95.42" height="8.33"/><line class="cls-10" x1="386.67" y1="396.58" x2="387.09" y2="447.76"/><rect class="cls-11" x="471.49" y="172.77" width="217.76" height="125.69"/><rect class="cls-12" x="479.43" y="182.23" width="199.74" height="107"/><path class="cls-13" d="M657.86,654.44s2.36,9.12,5.31,9.12,13.58,3,13.58,3V670h-24.5l-4.43-7.79L645.43,670l-2.94-11.28v-7.52Z" transform="translate(-74.52 -209.19)"/><path class="cls-13" d="M653.51,675.7h-27l-5.77-9.13V676h-4.14V657.44h16.53s3.54,13.43,7.68,14S653.51,675.7,653.51,675.7Z" transform="translate(-74.52 -209.19)"/><polygon class="cls-14" points="567.54 223.03 567.54 234.31 553.98 230.01 555.98 227.32 560.76 220.88 567.54 223.03"/><path class="cls-14" d="M641.42,406a1.35,1.35,0,0,1,.72,0c1.74.56,9.25,3.12,10.37,6.13,1,2.76.39,6.64.11,8a1,1,0,0,0,.27.9l1.7,1.78a1.07,1.07,0,0,1-.89,1.79h0a1.13,1.13,0,0,0-1.19,1.08v8.05a1.14,1.14,0,0,1-1.19,1.08H642a1.27,1.27,0,0,1-.47-.09c-1.72-.68-12.61-5.08-12.91-6.84s-.08-14.45,0-17.8a1.11,1.11,0,0,1,.86-1Z" transform="translate(-74.52 -209.19)"/><path class="cls-15" d="M631.45,442.1h10.61l30.13,49.41s-.59,12.35-7.68,10.2-29.23-20-29.23-20Z" transform="translate(-74.52 -209.19)"/><path class="cls-12" d="M613.06,520.88s-.5,19-.5,24.86,5.91,9.67,5.91,12.89-3,30.08-3,30.08v73h19.77s-2.07-51,0-59.61,11.52-47.79,12.11-53.7,0-27.55,0-27.55Z" transform="translate(-74.52 -209.19)"/><path class="cls-12" d="M651.82,520.88s.88,68.36,3.25,87.16,7.67,53.7,7.67,53.7H642.06s-3.52-6.44-3.52-18.8-8.43-43.49-8.43-43.49L635,557l7.07-33.83Z" transform="translate(-74.52 -209.19)"/><path class="cls-15" d="M635.28,435.39s-15,2.5-15.63,14,0,23.31,0,29.22-1.18,19.87-3.55,23.63S612.56,528,612.56,528h42.51l2.36-28.46-2.36-26.31-13-23.85Z" transform="translate(-74.52 -209.19)"/><path class="cls-13" d="M650.2,409.34s-7.68,7-9.45,7,0,7,0,7l-9.44-2.69s0,10.74,2.36,10.74-2.36,6.44-2.36,6.44-13.58-5.9-13.58-11.27-14.76-3.76-12.4-11.82,5.9-12.89,10-11.81,8.85,5.37,8.85,5.37,2.95-4.59,7.09-5.52,11.8-6.59,15.34,0Z" transform="translate(-74.52 -209.19)"/><path class="cls-16" d="M556.46,643.66a1,1,0,0,0-.37,1.38c1.6,2.64,5.89,10,5,12.07-1,2.31,15.76,2.15,18.54,2.11a.82.82,0,0,0,.63-.35l.69-1a1,1,0,0,0-.19-1.35l-19.31-14.71a.76.76,0,0,0-.77-.09Z" transform="translate(-74.52 -209.19)"/><path class="cls-17" d="M560.37,653.22h-1.44a.88.88,0,0,0-.82.95c0,2.5.24,9.16,1.12,10s24.41.1,27.18,0a.67.67,0,0,0,.48-.2,35.77,35.77,0,0,0,4.62-5c1.74-2.46-8.69-1.86-9.91-1.78a.58.58,0,0,1-.23,0l-14.27-3.84-.19,0Z" transform="translate(-74.52 -209.19)"/><path class="cls-16" d="M490,645.2a.84.84,0,0,0-.8.71c-.59,2.81-2.87,13.06-5.43,15.23-2.78,2.37,2.57,12.52,3.24,13.74a.82.82,0,0,0,.16.22l4.56,4.47c.61.6,1.54-.06,1.33-.94-.79-3.26-1.69-8.44-.75-12.45,1.23-5.21,4-16.19,4.9-19.8a.91.91,0,0,0-.79-1.18Z" transform="translate(-74.52 -209.19)"/><path class="cls-17" d="M487.18,661.82a.87.87,0,0,0-.34-.39c-1-.61-5.48-3.12-6.79-2.39a7.6,7.6,0,0,0-3.71,7.14c.29,3,13.21,17.64,18.71,23.76.62.69,1.63,0,1.36-1l-6.16-20.62a.58.58,0,0,0-.05-.14Z" transform="translate(-74.52 -209.19)"/><path class="cls-18" d="M436.12,547.46a3.31,3.31,0,0,0-2.43,2.72c-1.45,7.84-6.09,33.69-5.14,39.73,1,6.71,16.53,9,18.38,9.22l.35,0h34.79a13.88,13.88,0,0,0,9.67-4l10.65-10.37c1.71-1.66,4.36-.79,5,1.66,1.77,6.77,5.3,18,9.87,21.16,6,4.14,30.78,32.59,35.85,38.43a2.88,2.88,0,0,0,2.21,1h6.41c2.37,0,3.87-2.87,2.72-5.22l-36.74-74.89a7.16,7.16,0,0,0-5.83-4.16l-76.19-5.22c-3.2-.22-5.73-3.15-5.86-6.78h0a3.22,3.22,0,0,0-3.71-3.3Z" transform="translate(-74.52 -209.19)"/><path class="cls-18" d="M500.56,574.79a.84.84,0,0,0-.78.62c-1.61,5.23-13,42.49-15.4,62.38-2.05,17-.85,17.33-.26,16.75a.79.79,0,0,1,.76-.24l9.93,2.62a.8.8,0,0,0,1-.58c2.14-6.55,17.28-52.93,18.31-57.61,1-4.39.25-19.3,0-23.07a.88.88,0,0,0-.82-.87Z" transform="translate(-74.52 -209.19)"/><rect class="cls-16" x="367.79" y="250.39" width="23.25" height="26.31" rx="1.06"/><path class="cls-19" d="M440.09,472.73a.74.74,0,0,1,.57.29c1.18,1.41,6.66,7.71,11.27,8.94s13.31-3.36,15.22-4.4a.67.67,0,0,1,.74,0c2,1.43,11.26,8.52,12.25,16.35,1.08,8.46,3.19,20.8,3.34,21.64,0,0,0,.06,0,.09l4,45.39a1,1,0,0,1-.82,1.13H433.38a.93.93,0,0,1-.82-.93l-2-28c-.07-.94-1-1.28-1.48-.53a26,26,0,0,0-3.52,10.51c-.67,6.58,20.79,3.63,25.46,2.91a.9.9,0,0,1,.92,1l.32,11.73a1,1,0,0,1-.77,1.05l-25.92,2.23h-.06c-.76,0-15.47-.11-15.88-4.15s-.78-17.53,2.19-26.29c2.75-8.12,3.27-25.33,3.33-27.83a1.29,1.29,0,0,1,.15-.55l17.06-30.21a.82.82,0,0,1,.68-.44Z" transform="translate(-74.52 -209.19)"/><path class="cls-16" d="M444.21,546.65h16.94a.79.79,0,0,1,.55.24l3.56,3.6a1,1,0,0,1-.54,1.62h-4.26a1,1,0,0,0-.67,1.47h0a.94.94,0,0,1-.66,1.47h-16a.91.91,0,0,1-.81-1.1l1.07-6.54A.85.85,0,0,1,444.21,546.65Z" transform="translate(-74.52 -209.19)"/><path class="cls-20" d="M469,446.91a.79.79,0,0,0-1.34-.43,23,23,0,0,1-7.59,5.26,41,41,0,0,1-10.28,2.45.87.87,0,0,0-.73.8l-2.27,18.69a.87.87,0,0,1-.73.8c-2.94.33-15.12,2.07-19,8.33-4.45,7.14-9.65,20.16-10.76,24.78-.81,3.34-3,4.05-4.11,4.18a.83.83,0,0,1-.88-.7c-.71-3.37-3.43-17.48.16-21.54,4.08-4.62,15.59-18.06,18.93-20.58s9-19.31,8.75-23.51,5.36-17.64,17.24-16.38,18.56,4.48,20,10.43,4.83,19.39,3.34,29a75,75,0,0,1-4.1,15.54.8.8,0,0,1-1.1.46l-13.19-6.89a1,1,0,0,1-.47-.95l1.76-17.94a1.07,1.07,0,0,1,.2-.52l6.57-8.21a1,1,0,0,0,.18-.89Z" transform="translate(-74.52 -209.19)"/><path class="cls-16" d="M464.91,441.74c2.73-.91,5.51,1.17,5.86,4.35.54,4.88.83,11.69-.9,16.33-1.87,5-6.4,9.56-9.49,12.22a4.21,4.21,0,0,1-5.85-.24l-8.7-8.74a5.52,5.52,0,0,1-1.55-3.9v-9.29a5.16,5.16,0,0,1,3.31-5Z" transform="translate(-74.52 -209.19)"/><path class="cls-17" d="M331.22,661.9v23.74h37.32s2-3,0-3.88-20.09-4.75-22.14-8-4.92-11.87-4.92-11.87Z" transform="translate(-74.52 -209.19)"/><path class="cls-16" d="M260.69,402l-1.64,34.11s-20.53,3.45-23.38-5.62-2-14-2-14L232,406.77Z" transform="translate(-74.52 -209.19)"/><path class="cls-16" d="M235.85,422.55h-3.61a1.21,1.21,0,0,0-1.16,1.43c.5,3.3,1.51,11.24-.24,12.9a22.81,22.81,0,0,1-2.45,2c-1.36.95,8.22,11.34,18.44,9.47,5.1-.94,6-.88,5.6-.59a1.17,1.17,0,0,1-1.78-1.22l1.75-13.26a1.24,1.24,0,0,0-.58-1.24l-15.38-9.31A1.12,1.12,0,0,0,235.85,422.55Z" transform="translate(-74.52 -209.19)"/><path class="cls-21" d="M223.65,489.66s22.82,42.95,27.94,43.6S308.67,535,308.67,535v-9.07s-36.63-7.77-42.51-13.59-19.83-35.62-19.83-35.62Z" transform="translate(-74.52 -209.19)"/><path class="cls-21" d="M243.05,489l11.8-8.2s3.56,16,10.8,24.17,38.41,19,38.41,19v7.77l-53-3.45Z" transform="translate(-74.52 -209.19)"/><polygon class="cls-16" points="232.17 316.3 248.91 314.57 256.7 321.05 244.44 322.77 249.73 325.8 232.17 323.64 232.17 316.3"/><path class="cls-22" d="M245.69,406.64c4.38-1.8,19.7,0,19.7,0s3.07-12.63-3.06-13.53-31.1-3.16-31.1-3.16-8.76,8.12-7.44,15.34,6.57,18.8,8.32,19.78S234.74,413,234.74,413l4.38.45.43,3.61S241.31,408.45,245.69,406.64Z" transform="translate(-74.52 -209.19)"/><path class="cls-23" d="M207.78,554s1.61,26.17,4.07,29.63,71.8,3.18,71.8,3.18l19.69.1s4.17,40.91,15.62,61.2l11.44,20.28h16l-15.18-94.1a32.26,32.26,0,0,0-22.55-14.68c-16-2.59-55.36-10.79-55.36-10.79Z" transform="translate(-74.52 -209.19)"/><path class="cls-21" d="M228.74,439.5s-34.64,43.69-27.49,98.94l3.36,21.15s50,0,55.05-9.06S256.72,532,256.72,532l5.47-60.87-11.35-23.52Z" transform="translate(-74.52 -209.19)"/><polygon class="cls-17" points="668.17 457.16 668.17 464.8 697.52 464.8 678.46 456.14 668.17 457.16"/><path class="cls-17" d="M696.53,665.33l-1,8.4s9.53,4.59,12.54,2.81,0-11.21,0-11.21Z" transform="translate(-74.52 -209.19)"/><path class="cls-24" d="M690,523l3.76,143.61c1.25,2.8,16.31,1.52,16.31,1.52l11.29-81.47s9.78,73.9,20.32,81.76h15.8s-9-56.3-9.78-67.25-2.26-61.62-3.77-67-3.76-11.2-3.76-11.2Z" transform="translate(-74.52 -209.19)"/><rect class="cls-25" x="658.55" y="254.92" width="13.98" height="17.08"/><path class="cls-26" d="M704.06,424.72V441s10,7.39,14.3,1.53h3.76v-14Z" transform="translate(-74.52 -209.19)"/><path class="cls-26" d="M725.13,411.17v20s-8.91,4.26-14.3,1.6-8.1-13.05-8.1-13.05l6.48-13.05h14.84Z" transform="translate(-74.52 -209.19)"/><path class="cls-27" d="M705.81,438.47s-21.07,5.6-24.33,13,8.78,24.7,8.78,24.7,8,9.68,15.55,12.48,12.55-3.82,12.55-3.82,11.92-21.64,10.6-37.17l.1-11.21-9.2-1.67S704.42,465.2,705,470.55l-4.7-8.51h38.14s8,12.84,7,20l-41.14-1s7,10.18,1.75,14.26l42.9,1.53s6.27-4.08,4.27-13.75-7-28.77-7-28.77-1.75-10.44-7.27-11.46S723.62,441,723.62,441Z" transform="translate(-74.52 -209.19)"/><path class="cls-28" d="M690.76,467.52l-2.26,58.79a136.56,136.56,0,0,0,18.31,5.6c9.29,2,34.63-1.52,35.63-3s0-32.08,0-32.08l-3.76-38.45-47.92,1Z" transform="translate(-74.52 -209.19)"/><path class="cls-29" d="M720.36,436.94l1.76-9.93h8.28v5a18.64,18.64,0,0,0-1.44,1.91c-1.65,2.22-3.58,4.58-3.58,4.58Z" transform="translate(-74.52 -209.19)"/><path class="cls-30" d="M727.89,402.14a4.83,4.83,0,0,0-3.61-3.16c-3.39-.68-9.13-1.76-11.19-1.76-3,0-13.8,3.31-15.31,9.42s6.28,18.08,6.28,18.08l2.25-6.11,5.93.25V408.42l14.64,1s1.51,0,2-2C729.17,406.27,728.52,404,727.89,402.14Z" transform="translate(-74.52 -209.19)"/><path class="cls-31" d="M705.81,438.47s-21.07,5.6-24.33,13,8.78,24.7,8.78,24.7,8,9.68,15.55,12.48,12.55-3.82,12.55-3.82,11.92-21.64,10.6-37.17l.1-11.21-9.2-1.67S704.42,465.2,705,470.55l-4.7-8.51h38.14s8,12.84,7,20l-41.14-1s7,10.18,1.75,14.26l42.9,1.53s6.27-4.08,4.27-13.75-7-28.77-7-28.77-1.75-10.44-7.27-11.46S723.62,441,723.62,441Z" transform="translate(-74.52 -209.19)"/><polygon class="cls-26" points="620.75 274.85 625.02 284.53 635.81 284.53 635.81 276.89 622.01 270.78 620.75 274.85"/><path class="cls-12" d="M481.94,303.07H503.6a0,0,0,0,1,0,0v12a7.34,7.34,0,0,1-7.34,7.34h-7a7.34,7.34,0,0,1-7.34-7.34v-12A0,0,0,0,1,481.94,303.07Z"/><ellipse class="cls-32" cx="505.51" cy="312.17" rx="5.43" ry="6.79"/><line class="cls-33" x1="237.26" y1="362.77" x2="237.26" y2="482.16"/><line class="cls-33" x1="586.23" y1="359.07" x2="586.23" y2="478.46"/><rect class="cls-9" x="218.8" y="327.89" width="386.41" height="10.53"/><rect class="cls-34" x="191.15" y="321.88" width="441.71" height="12.03"/><rect class="cls-9" x="227.96" y="338.42" width="18.6" height="30.54"/><rect class="cls-9" x="576.93" y="338.42" width="18.6" height="30.54"/><polygon class="cls-35" points="288 322.19 290.77 322.71 301.63 263.23 298.86 262.71 288 322.19"/><rect class="cls-17" x="218.8" y="320" width="72.29" height="2.83"/><polygon class="cls-28" points="430.25 320.86 370.28 320.86 381.02 280.93 440.99 280.93 430.25 320.86"/><ellipse class="cls-36" cx="406.82" cy="298.61" rx="2.06" ry="2.09"/><rect class="cls-37" x="362.58" y="320.86" width="67.7" height="1.02"/><rect class="cls-9" x="95.52" y="365.84" width="126.57" height="8.82"/><rect class="cls-9" x="92.83" y="267.64" width="21.35" height="102.61"/><rect class="cls-38" x="154.34" y="370.25" width="3.86" height="92.55"/><rect x="107.74" y="374.66" width="100.9" height="4.8"/><path class="cls-38" d="M134.38,462.8H178.3a10.91,10.91,0,0,1,10.91,10.91V481a0,0,0,0,1,0,0H123.32a0,0,0,0,1,0,0v-7.16A11.06,11.06,0,0,1,134.38,462.8Z"/><circle class="cls-1" cx="504.01" cy="61.2" r="17.34"/><circle class="cls-1" cx="107.74" cy="110.9" r="10.7"/><circle class="cls-1" cx="763.43" cy="64.75" r="10.7"/><circle class="cls-1" cx="494" cy="121.6" r="3.1"/><circle class="cls-1" cx="334.86" cy="448.25" r="3.1"/><circle class="cls-1" cx="391.04" cy="75.44" r="3.1"/><circle class="cls-1" cx="553.12" cy="105.37" r="3.1"/><circle class="cls-1" cx="415.58" cy="37.95" r="3.1"/><circle class="cls-1" cx="288" cy="39.3" r="3.1"/><circle class="cls-1" cx="373.91" cy="198.34" r="3.1"/><circle class="cls-1" cx="615.49" cy="137.46" r="3.1"/><circle class="cls-1" cx="645.85" cy="37.95" r="3.1"/><circle class="cls-1" cx="788.31" cy="66.77" r="3.1"/><circle class="cls-1" cx="430.28" cy="155.44" r="3.1"/><circle class="cls-1" cx="107.74" cy="143.04" r="3.1"/><circle class="cls-1" cx="506.59" cy="365.84" r="3.1"/><circle class="cls-39" cx="612.39" cy="75.44" r="11.78"/><circle class="cls-39" cx="408.88" cy="100.2" r="11.78"/><circle class="cls-39" cx="254.95" cy="149.24" r="11.78"/><circle class="cls-39" cx="689.24" cy="155.44" r="11.78"/><line class="cls-40" x1="743.83" y1="286.76" x2="759.86" y2="286.76"/><line class="cls-40" x1="713.93" y1="355.71" x2="758.81" y2="355.71"/><polygon class="cls-9" points="706.2 378.91 699.53 376.33 758.76 218.1 765.43 220.67 706.2 378.91"/><rect class="cls-9" x="739.7" y="282.57" width="8.26" height="8.38"/><line class="cls-41" x1="758.22" y1="286.76" x2="758.22" y2="482.27"/><rect class="cls-42" x="747.9" y="482.27" width="22.51" height="4.33"/><ellipse cx="758.46" cy="356.4" rx="5.28" ry="6.7"/><circle class="cls-43" cx="331.76" cy="88.42" r="18.99"/><circle class="cls-43" cx="331.76" cy="88.42" r="14.58"/><circle class="cls-43" cx="650.86" cy="118.5" r="18.99"/><circle class="cls-43" cx="650.86" cy="118.5" r="14.58"/><circle class="cls-43" cx="266.72" cy="201.78" r="18.99"/><circle class="cls-43" cx="266.72" cy="201.78" r="14.58"/><circle class="cls-43" cx="791.41" cy="201.78" r="18.99"/><circle class="cls-43" cx="791.41" cy="201.78" r="14.58"/><circle class="cls-43" cx="107.74" cy="190.04" r="18.99"/><circle class="cls-43" cx="107.74" cy="190.04" r="14.58"/></svg>