<svg xmlns="http://www.w3.org/2000/svg" xmlns:xlink="http://www.w3.org/1999/xlink" width="31.176" height="26.872" viewBox="0 0 31.176 26.872">
  <defs>
    <filter id="Union_2" x="0" y="0" width="31.176" height="26.872" filterUnits="userSpaceOnUse">
      <feOffset dy="3" input="SourceAlpha"/>
      <feGaussianBlur stdDeviation="3" result="blur"/>
      <feFlood flood-opacity="0.161"/>
      <feComposite operator="in" in2="blur"/>
      <feComposite in="SourceGraphic"/>
    </filter>
    <filter id="Ellipse_8" x="8.747" y="0.292" width="19.749" height="19.752" filterUnits="userSpaceOnUse">
      <feOffset dy="3" input="SourceAlpha"/>
      <feGaussianBlur stdDeviation="3" result="blur-2"/>
      <feFlood flood-opacity="0.161"/>
      <feComposite operator="in" in2="blur-2"/>
      <feComposite in="SourceGraphic"/>
    </filter>
  </defs>
  <g id="_16" data-name="16" transform="translate(6.568 2.43)">
    <path id="Path_36" data-name="Path 36" d="M8,0A8,8,0,1,1,0,8,8,8,0,0,1,8,0Z" fill="#c12179"/>
    <g transform="matrix(1, 0, 0, 1, -6.57, -2.43)" filter="url(#Union_2)">
      <path id="Union_2-2" data-name="Union 2" d="M3.354,8.769q.038-.395.038-.691A6.387,6.387,0,0,0,1.809,4.82a6.5,6.5,0,0,0-.776.987l-.615.884L0,6.342a9.211,9.211,0,0,0,.627-.913q.39-.63.6-.926a3.977,3.977,0,0,0,.832-1.9h.188a4.952,4.952,0,0,0,.913,1.744A6.826,6.826,0,0,1,4.126,6a3.619,3.619,0,0,1,.183,1.082v.358A6.143,6.143,0,0,0,6.434,3.027,2.027,2.027,0,0,0,5.99,1.649a1.456,1.456,0,0,0-1.152-.506A2.25,2.25,0,0,0,3.806,1.4,2.523,2.523,0,0,1,3.524.181,1.76,1.76,0,0,1,4.382,0a2.379,2.379,0,0,1,1.83.872,3.2,3.2,0,0,1,.772,2.192q0,3.048-3.477,5.808Zm.977-.144A4.171,4.171,0,0,0,5.978,7.9,9.112,9.112,0,0,0,7.6,6.112l0,0A8.655,8.655,0,0,0,9.058,3.138L10.4,2.46V6.523a4.349,4.349,0,0,0,.073,1,.338.338,0,0,0,.367.243q.6,0,1.941-1.678l.4.333a6.918,6.918,0,0,1-1.57,1.69,2.536,2.536,0,0,1-1.447.588c-.482,0-.785-.123-.913-.37a3.211,3.211,0,0,1-.188-1.308V4.689A7.551,7.551,0,0,1,8.037,6.43,4.777,4.777,0,0,1,4.424,8.868Z" transform="translate(9 6)" fill="#f3f1f2"/>
    </g>
    <g transform="matrix(1, 0, 0, 1, -6.57, -2.43)" filter="url(#Ellipse_8)">
      <ellipse id="Ellipse_8-2" data-name="Ellipse 8" cx="0.875" cy="0.876" rx="0.875" ry="0.876" transform="translate(17.75 6.29)" fill="#f3f1f2"/>
    </g>
    <path id="Path_24" data-name="Path 24" d="M434.439,285.57c-.277.362-.6.818-.939,1.275l.469.247.322-.4a2.511,2.511,0,0,0,.072-.3C434.426,286.04,434.5,285.482,434.439,285.57Z" transform="translate(-418.481 -276.933)" fill="#f3f1f2"/>
  </g>
</svg>
