<svg xmlns="http://www.w3.org/2000/svg" xmlns:xlink="http://www.w3.org/1999/xlink" width="44.351" height="36.884" viewBox="0 0 44.351 36.884">
  <defs>
    <filter id="Union_2" x="0" y="1.141" width="44.351" height="35.744" filterUnits="userSpaceOnUse">
      <feOffset dy="3" input="SourceAlpha"/>
      <feGaussianBlur stdDeviation="3" result="blur"/>
      <feFlood flood-opacity="0.161"/>
      <feComposite operator="in" in2="blur"/>
      <feComposite in="SourceGraphic"/>
    </filter>
    <filter id="Ellipse_8" x="17.493" y="1.725" width="21.499" height="21.504" filterUnits="userSpaceOnUse">
      <feOffset dy="3" input="SourceAlpha"/>
      <feGaussianBlur stdDeviation="3" result="blur-2"/>
      <feFlood flood-opacity="0.161"/>
      <feComposite operator="in" in2="blur-2"/>
      <feComposite in="SourceGraphic"/>
    </filter>
  </defs>
  <g id="_32" data-name="32" transform="translate(4.136)">
    <path id="Path_36" data-name="Path 36" d="M16,0A16,16,0,1,1,0,16,16,16,0,0,1,16,0Z" fill="#c12179"/>
    <g transform="matrix(1, 0, 0, 1, -4.14, 0)" filter="url(#Union_2)">
      <path id="Union_2-2" data-name="Union 2" d="M6.708,17.538q.076-.79.076-1.381Q6.759,13.8,3.618,9.641a13.009,13.009,0,0,0-1.553,1.974L.836,13.384,0,12.685a18.422,18.422,0,0,0,1.255-1.826q.78-1.26,1.2-1.851A7.954,7.954,0,0,0,4.122,5.215H4.5A9.9,9.9,0,0,0,6.323,8.7a13.652,13.652,0,0,1,1.929,3.29,7.238,7.238,0,0,1,.366,2.164v.716q4.25-4.158,4.25-8.819A4.055,4.055,0,0,0,11.981,3.3a2.911,2.911,0,0,0-2.3-1.011,4.5,4.5,0,0,0-2.065.51A5.046,5.046,0,0,1,7.049.361,3.52,3.52,0,0,1,8.764,0a4.758,4.758,0,0,1,3.66,1.744,6.392,6.392,0,0,1,1.544,4.385q0,6.1-6.954,11.615Zm1.954-.288A8.341,8.341,0,0,0,11.956,15.8,18.225,18.225,0,0,0,15.2,12.224l.01.007a17.31,17.31,0,0,0,2.908-5.955L20.8,4.919v8.127a8.7,8.7,0,0,0,.146,2,.676.676,0,0,0,.733.486q1.2,0,3.883-3.357l.794.667a13.836,13.836,0,0,1-3.14,3.381A5.072,5.072,0,0,1,20.318,17.4c-.964,0-1.57-.247-1.826-.74a6.422,6.422,0,0,1-.375-2.616V9.378a15.1,15.1,0,0,1-2.042,3.481q-2.916,4.5-7.225,4.877Z" transform="translate(9 7.14)" fill="#f3f1f2"/>
    </g>
    <g transform="matrix(1, 0, 0, 1, -4.14, 0)" filter="url(#Ellipse_8)">
      <ellipse id="Ellipse_8-2" data-name="Ellipse 8" cx="1.749" cy="1.752" rx="1.749" ry="1.752" transform="translate(26.49 7.72)" fill="#f3f1f2"/>
    </g>
    <path id="Path_24" data-name="Path 24" d="M435.377,285.58c-.555.724-1.195,1.637-1.877,2.55l.939.494.643-.794a5.023,5.023,0,0,0,.144-.6C435.352,286.519,435.5,285.4,435.377,285.58Z" transform="translate(-403.463 -268.305)" fill="#f3f1f2"/>
  </g>
</svg>
