<svg id="_540" data-name="540" xmlns="http://www.w3.org/2000/svg" xmlns:xlink="http://www.w3.org/1999/xlink" width="540" height="540" viewBox="0 0 540 540">
  <defs>
    <filter id="Union_2" x="73.079" y="114.499" width="462.675" height="317.424" filterUnits="userSpaceOnUse">
      <feOffset dy="3" input="SourceAlpha"/>
      <feGaussianBlur stdDeviation="3" result="blur"/>
      <feFlood flood-opacity="0.161"/>
      <feComposite operator="in" in2="blur"/>
      <feComposite in="SourceGraphic"/>
    </filter>
    <filter id="Ellipse_8" x="368.28" y="124.35" width="77.04" height="77.136" filterUnits="userSpaceOnUse">
      <feOffset dy="3" input="SourceAlpha"/>
      <feGaussianBlur stdDeviation="3" result="blur-2"/>
      <feFlood flood-opacity="0.161"/>
      <feComposite operator="in" in2="blur-2"/>
      <feComposite in="SourceGraphic"/>
    </filter>
  </defs>
  <path id="Path_36" data-name="Path 36" d="M270,0C419.117,0,540,120.883,540,270S419.117,540,270,540,0,419.117,0,270,120.883,0,270,0Z" fill="#c12179"/>
  <g transform="matrix(1, 0, 0, 1, 0, 0)" filter="url(#Union_2)">
    <path id="Union_2-2" data-name="Union 2" d="M113.192,295.948q1.276-13.326,1.291-23.312-.433-39.776-53.43-109.951c-6.91,6.667-15.689,17.768-26.2,33.319L14.109,225.849,0,214.058q8.2-10,21.171-30.817Q34.339,161.982,41.477,152,65.01,121.4,69.559,88h6.333c3.022,15,13.243,34.713,30.815,58.863s28.37,42.758,32.547,55.522c4.025,12.779,6.181,24.989,6.181,36.51v12.075q71.715-70.159,71.715-148.813c0-19.566-5.042-35.117-14.975-46.5S179.288,38.593,163.3,38.593a75.921,75.921,0,0,0-34.84,8.6c-6.348-11.656-9.507-25.544-9.507-41.095C126.147,2.082,135.791,0,147.9,0q35.63,0,61.768,29.424c17.283,19.581,26.062,44.286,26.062,73.995q0,102.857-117.354,196.005Zm32.972-4.854c22.022-4.854,40.611-13.049,55.586-24.435,15.112-11.371,33.261-31.506,54.721-60.376l.167.116q37.322-51.769,49.071-100.493l45.213-22.892V220.156c0,17.079.866,28.315,2.46,33.739,1.579,5.408,5.756,8.195,12.378,8.195q20.3,0,65.519-56.646l13.4,11.251q-25.7,37.259-52.989,57.05c-18.149,13.319-34.415,19.851-48.828,19.851-16.266,0-26.487-4.165-30.815-12.495-4.161-8.33-6.333-23.042-6.333-44.151v-78.7A254.854,254.854,0,0,1,271.25,217q-49.2,75.919-121.927,82.293Z" transform="translate(82.08 120.5)" fill="#f3f1f2"/>
  </g>
  <g transform="matrix(1, 0, 0, 1, 0, 0)" filter="url(#Ellipse_8)">
    <ellipse id="Ellipse_8-2" data-name="Ellipse 8" cx="29.52" cy="29.568" rx="29.52" ry="29.568" transform="translate(377.28 130.35)" fill="#f3f1f2"/>
  </g>
  <path id="Path_24" data-name="Path 24" d="M465.18,285.877c-9.36,12.216-20.16,27.625-31.68,43.033l15.839,8.33,10.851-13.4a84.784,84.784,0,0,0,2.434-10.109C464.746,301.719,467.244,282.892,465.18,285.877Z" transform="translate(73.38 5.639)" fill="#f3f1f2"/>
</svg>
