<svg id="_64" data-name="64" xmlns="http://www.w3.org/2000/svg" xmlns:xlink="http://www.w3.org/1999/xlink" width="71.43" height="64" viewBox="0 0 71.43 64">
  <defs>
    <filter id="Union_2" x="0.728" y="8.281" width="70.702" height="53.487" filterUnits="userSpaceOnUse">
      <feOffset dy="3" input="SourceAlpha"/>
      <feGaussianBlur stdDeviation="3" result="blur"/>
      <feFlood flood-opacity="0.161"/>
      <feComposite operator="in" in2="blur"/>
      <feComposite in="SourceGraphic"/>
    </filter>
    <filter id="Ellipse_8" x="35.715" y="9.449" width="24.997" height="25.009" filterUnits="userSpaceOnUse">
      <feOffset dy="3" input="SourceAlpha"/>
      <feGaussianBlur stdDeviation="3" result="blur-2"/>
      <feFlood flood-opacity="0.161"/>
      <feComposite operator="in" in2="blur-2"/>
      <feComposite in="SourceGraphic"/>
    </filter>
  </defs>
  <path id="Path_36" data-name="Path 36" d="M32,0A32,32,0,1,1,0,32,32,32,0,0,1,32,0Z" fill="#c12179"/>
  <g transform="matrix(1, 0, 0, 1, 0, 0)" filter="url(#Union_2)">
    <path id="Union_2-2" data-name="Union 2" d="M13.415,35.075q.151-1.579.153-2.763Q13.517,27.6,7.236,19.281A26.019,26.019,0,0,0,4.131,23.23L1.672,26.767,0,25.37a36.844,36.844,0,0,0,2.509-3.652q1.561-2.52,2.407-3.7A15.908,15.908,0,0,0,8.244,10.43h.751c.358,1.777,1.57,4.114,3.652,6.976a27.3,27.3,0,0,1,3.857,6.58,14.477,14.477,0,0,1,.733,4.327v1.431q8.5-8.315,8.5-17.637A8.11,8.11,0,0,0,23.962,6.6a5.822,5.822,0,0,0-4.608-2.022,9,9,0,0,0-4.129,1.019A10.092,10.092,0,0,1,14.1.723,7.04,7.04,0,0,1,17.528,0a9.516,9.516,0,0,1,7.321,3.487,12.785,12.785,0,0,1,3.089,8.77q0,12.19-13.909,23.23Zm3.908-.575a16.682,16.682,0,0,0,6.588-2.9A36.449,36.449,0,0,0,30.4,24.448l.02.014a34.62,34.62,0,0,0,5.816-11.91l5.359-2.713V26.093a17.4,17.4,0,0,0,.292,4,1.352,1.352,0,0,0,1.467.971q2.406,0,7.765-6.714L52.7,25.682a27.672,27.672,0,0,1-6.28,6.762A10.145,10.145,0,0,1,40.635,34.8c-1.928,0-3.139-.494-3.652-1.481a12.844,12.844,0,0,1-.751-5.233V18.756a30.2,30.2,0,0,1-4.084,6.962q-5.831,9-14.451,9.753Z" transform="translate(9.73 14.28)" fill="#f3f1f2"/>
  </g>
  <g transform="matrix(1, 0, 0, 1, 0, 0)" filter="url(#Ellipse_8)">
    <ellipse id="Ellipse_8-2" data-name="Ellipse 8" cx="3.499" cy="3.504" rx="3.499" ry="3.504" transform="translate(44.71 15.45)" fill="#f3f1f2"/>
  </g>
  <path id="Path_24" data-name="Path 24" d="M437.255,285.6c-1.109,1.448-2.389,3.274-3.755,5.1l1.877.987,1.286-1.588a10.047,10.047,0,0,0,.288-1.2C437.2,287.476,437.5,285.245,437.255,285.6Z" transform="translate(-373.425 -251.048)" fill="#f3f1f2"/>
</svg>
