<svg id="_2" data-name="2" xmlns="http://www.w3.org/2000/svg" xmlns:xlink="http://www.w3.org/1999/xlink" width="305" height="153" viewBox="0 0 305 153">
  <defs>
    <filter id="Path_25" x="45.337" y="51.892" width="47.863" height="52.14" filterUnits="userSpaceOnUse">
      <feOffset dy="3" input="SourceAlpha"/>
      <feGaussianBlur stdDeviation="3" result="blur"/>
      <feFlood flood-opacity="0.161"/>
      <feComposite operator="in" in2="blur"/>
      <feComposite in="SourceGraphic"/>
    </filter>
    <filter id="Path_26" x="72.866" y="47.462" width="39.352" height="55.958" filterUnits="userSpaceOnUse">
      <feOffset dy="3" input="SourceAlpha"/>
      <feGaussianBlur stdDeviation="3" result="blur-2"/>
      <feFlood flood-opacity="0.161"/>
      <feComposite operator="in" in2="blur-2"/>
      <feComposite in="SourceGraphic"/>
    </filter>
    <filter id="Ellipse_10" x="77.873" y="53.038" width="24.416" height="24.721" filterUnits="userSpaceOnUse">
      <feOffset dy="3" input="SourceAlpha"/>
      <feGaussianBlur stdDeviation="3" result="blur-3"/>
      <feFlood flood-opacity="0.161"/>
      <feComposite operator="in" in2="blur-3"/>
      <feComposite in="SourceGraphic"/>
    </filter>
    <filter id="Path_29" x="93.072" y="63.119" width="39.69" height="37.094" filterUnits="userSpaceOnUse">
      <feOffset dy="3" input="SourceAlpha"/>
      <feGaussianBlur stdDeviation="3" result="blur-4"/>
      <feFlood flood-opacity="0.161"/>
      <feComposite operator="in" in2="blur-4"/>
      <feComposite in="SourceGraphic"/>
    </filter>
    <filter id="Path_30" x="113.082" y="34.479" width="47.939" height="66.422" filterUnits="userSpaceOnUse">
      <feOffset dy="3" input="SourceAlpha"/>
      <feGaussianBlur stdDeviation="3" result="blur-5"/>
      <feFlood flood-opacity="0.161"/>
      <feComposite operator="in" in2="blur-5"/>
      <feComposite in="SourceGraphic"/>
    </filter>
    <filter id="Path_31" x="141.388" y="62.89" width="46.975" height="37.552" filterUnits="userSpaceOnUse">
      <feOffset dy="3" input="SourceAlpha"/>
      <feGaussianBlur stdDeviation="3" result="blur-6"/>
      <feFlood flood-opacity="0.161"/>
      <feComposite operator="in" in2="blur-6"/>
      <feComposite in="SourceGraphic"/>
    </filter>
    <filter id="Path_32" x="169.325" y="62.508" width="46.075" height="61.076" filterUnits="userSpaceOnUse">
      <feOffset dy="3" input="SourceAlpha"/>
      <feGaussianBlur stdDeviation="3" result="blur-7"/>
      <feFlood flood-opacity="0.161"/>
      <feComposite operator="in" in2="blur-7"/>
      <feComposite in="SourceGraphic"/>
    </filter>
    <filter id="Path_33" x="195.185" y="62.89" width="47.175" height="37.552" filterUnits="userSpaceOnUse">
      <feOffset dy="3" input="SourceAlpha"/>
      <feGaussianBlur stdDeviation="3" result="blur-8"/>
      <feFlood flood-opacity="0.161"/>
      <feComposite operator="in" in2="blur-8"/>
      <feComposite in="SourceGraphic"/>
    </filter>
    <filter id="Path_34" x="223.217" y="62.966" width="45.722" height="37.781" filterUnits="userSpaceOnUse">
      <feOffset dy="3" input="SourceAlpha"/>
      <feGaussianBlur stdDeviation="3" result="blur-9"/>
      <feFlood flood-opacity="0.161"/>
      <feComposite operator="in" in2="blur-9"/>
      <feComposite in="SourceGraphic"/>
    </filter>
  </defs>
  <rect id="Rectangle_10" data-name="Rectangle 10" width="305" height="153" fill="none"/>
  <g id="Group_15" data-name="Group 15" transform="translate(45.325 40.479)">
    <g id="vichayan_svg" data-name="vichayan svg" transform="translate(0 0)">
      <g id="Group_12" data-name="Group 12" transform="translate(0 0)">
        <g id="Group_10" data-name="Group 10" transform="translate(0 3.666)">
          <ellipse id="Ellipse_9" data-name="Ellipse 9" cx="29.71" cy="30.779" rx="29.71" ry="30.779" fill="#c02179"/>
          <g transform="matrix(1, 0, 0, 1, -45.32, -44.14)" filter="url(#Path_25)">
            <path id="Path_25-2" data-name="Path 25" d="M34.86,26.487a6.256,6.256,0,0,1,3.208-.687,8.788,8.788,0,0,1,6.8,3.36,12.43,12.43,0,0,1,2.826,8.4c0,7.867-4.277,15.275-12.907,22.378l-.535-.382c.076-.993.153-1.909.153-2.673,0-3.055-1.986-7.179-5.881-12.526a25.242,25.242,0,0,0-2.9,3.819l-2.291,3.437L21.8,50.24a38.161,38.161,0,0,0,2.368-3.513c.993-1.6,1.68-2.826,2.215-3.59a15.885,15.885,0,0,0,3.131-7.332H30.2a19.321,19.321,0,0,0,3.361,6.721,27.5,27.5,0,0,1,3.59,6.339,13.8,13.8,0,0,1,.687,4.2v1.375c5.27-5.346,7.867-11,7.867-16.955a8.04,8.04,0,0,0-1.6-5.27,5.327,5.327,0,0,0-4.277-1.986,7.707,7.707,0,0,0-3.819.993A9.656,9.656,0,0,1,34.86,26.487Zm16.8,24.058c-3.59,5.8-8.1,8.936-13.442,9.394l-.382-.916a14.13,14.13,0,0,0,6.11-2.826,34.408,34.408,0,0,0,6.034-6.874Z" transform="translate(32.54 32.09)" fill="#f3f1f2"/>
          </g>
          <g transform="matrix(1, 0, 0, 1, -45.32, -44.14)" filter="url(#Path_26)">
            <path id="Path_26-2" data-name="Path 26" d="M79.2,49.175a27.411,27.411,0,0,1-5.8,6.492c-1.986,1.528-3.742,2.291-5.346,2.291-1.757,0-2.9-.458-3.361-1.451A12.6,12.6,0,0,1,64,51.466V42.531a27.883,27.883,0,0,1-4.506,7.561l-1.647-1.212C60.9,44.6,63.08,40.545,64,36.5l4.964-2.6V49.557a13.889,13.889,0,0,0,.305,3.819,1.228,1.228,0,0,0,1.375.917c1.528,0,3.9-2.139,7.179-6.492Zm-8.554-24.9-3.513,4.43-3.513-4.43L67.128,20Z" transform="translate(24.02 33.46)" fill="#f3f1f2"/>
          </g>
          <path id="Path_27" data-name="Path 27" d="M72.618,29.405H63.605A.329.329,0,0,1,63.3,29.1V19.705a.329.329,0,0,1,.306-.306h9.012a.329.329,0,0,1,.306.306v9.318A.349.349,0,0,1,72.618,29.405Z" transform="translate(-22.592 -10.541)" fill="#c12179"/>
          <g transform="matrix(1, 0, 0, 1, -45.32, -44.14)" filter="url(#Ellipse_10)">
            <ellipse id="Ellipse_10-2" data-name="Ellipse 10" cx="3.208" cy="3.361" rx="3.208" ry="3.361" transform="translate(86.87 59.04)" fill="#f3f1f2"/>
          </g>
          <path id="Path_28" data-name="Path 28" d="M86.623,51.078s-2.294,3.291-3.592,5.048l1.656.926v.1l1.3-1.7C86.139,54.608,86.623,51.078,86.623,51.078Z" transform="translate(-27.254 -18.024)" fill="#f3f1f2"/>
        </g>
        <g id="Group_11" data-name="Group 11" transform="translate(56.747)">
          <g transform="matrix(1, 0, 0, 1, -102.07, -40.48)" filter="url(#Path_29)">
            <path id="Path_29-2" data-name="Path 29" d="M105.991,52.567c-2.9,4.735-6.645,7.026-11.227,7.026a7.191,7.191,0,0,1-5.423-2.215,8.975,8.975,0,0,1-2.062-6.263l.076-.306L85.6,53.255l-1.3-.916c3.819-5.728,6.568-9.165,8.248-10.234a9.088,9.088,0,0,1,4.964-1.6c2.673,0,4.659.917,5.881,2.826a4.573,4.573,0,0,1-2.52,3.131Q99.155,42.1,95.833,42.1a4.605,4.605,0,0,0-3.513,1.833,6.772,6.772,0,0,0-1.6,4.659,8.959,8.959,0,0,0,1.833,5.652,5.689,5.689,0,0,0,4.735,2.368c2.673,0,5.177-1.628,7.468-5.065Z" transform="translate(17.77 28.62)" fill="#f3f1f2"/>
          </g>
          <g transform="matrix(1, 0, 0, 1, -102.07, -40.48)" filter="url(#Path_30)">
            <path id="Path_30-2" data-name="Path 30" d="M140.439,43.708c-3.131,4.735-6.263,7.026-9.165,7.026a2.156,2.156,0,0,1-1.986-.993c-.458-.687-.687-2.062-.687-4.2V36.91c0-1.527-.611-2.291-1.757-2.291a4.423,4.423,0,0,0-2.9,1.375,11.089,11.089,0,0,0-2.75,3.742,8.842,8.842,0,0,0-1.222,3.131V48.9L116,51.422V37.445a41.84,41.84,0,0,1-4.277,6.95L110.5,43.4c.611-.993,1.222-1.909,1.757-2.826s1.3-2.291,2.291-4.2A11.8,11.8,0,0,0,116,32.863V15.831a14.923,14.923,0,0,1,2.749-9.241C120.582,4.222,122.72,3,125.164,3c2.9,0,4.353,1.833,4.353,5.423,0,4.735-3.208,12.22-9.547,22.607v7.485a24.122,24.122,0,0,1,4.812-5.27,6.841,6.841,0,0,1,4.2-1.451c2.368,0,3.59,1.757,3.59,5.194V44.93q0,2.979,1.146,2.979c1.375,0,3.208-1.757,5.652-5.194ZM119.894,27.593a84.9,84.9,0,0,0,5.346-11.227A22.315,22.315,0,0,0,126.691,8.8a6.155,6.155,0,0,0-.764-3.284,2.406,2.406,0,0,0-1.986-1.3c-1.222,0-2.215.84-2.979,2.444a17.8,17.8,0,0,0-1.069,6.8V27.593Z" transform="translate(11.58 37.48)" fill="#f3f1f2"/>
          </g>
          <g transform="matrix(1, 0, 0, 1, -102.07, -40.48)" filter="url(#Path_31)">
            <path id="Path_31-2" data-name="Path 31" d="M176.537,52.5c-2.673,3.59-5.728,6.645-8.554,7.027a2.459,2.459,0,0,1-2.291-.84,7.254,7.254,0,0,1-.764-3.666,14.7,14.7,0,0,1-3.972,3.819,7.257,7.257,0,0,1-3.666.916,5.866,5.866,0,0,1-4.735-2.062,8.621,8.621,0,0,1-1.757-5.652v-1.68c-.305.382-.95,1.229-2.019,2.757l-1.217-.823a34.006,34.006,0,0,1,7.208-8.5c2.52-2.062,4.735-3.055,6.645-3.055a7.547,7.547,0,0,1,4.048,1.222L168.9,40.2V53.642a8.073,8.073,0,0,0,.229,2.6c.153.306.458.458,1.069.458a4.336,4.336,0,0,0,2.215-1.375,21.482,21.482,0,0,0,3.131-3.819Zm-11.685-.458V44.019a5.088,5.088,0,0,0-3.742-1.6,5.519,5.519,0,0,0-4.2,2.215,8.29,8.29,0,0,0-1.909,5.5,6.954,6.954,0,0,0,1.3,4.43,4.51,4.51,0,0,0,7.027-.306A6.3,6.3,0,0,0,164.852,52.038Z" transform="translate(2.83 28.69)" fill="#f3f1f2"/>
          </g>
          <g transform="matrix(1, 0, 0, 1, -102.07, -40.48)" filter="url(#Path_32)">
            <path id="Path_32-2" data-name="Path 32" d="M212.216,51.614c-2.749,4.659-5.423,7.1-7.943,7.561v12.6a11.68,11.68,0,0,1-2.826,7.867,9.07,9.07,0,0,1-7.1,3.131,10.348,10.348,0,0,1-4.812-1.3,8.578,8.578,0,0,1-3.666-3.513l3.284-3.742.535.535c-.076.687-.153,1.146-.153,1.528a4.534,4.534,0,0,0,1.6,3.36,5.429,5.429,0,0,0,3.819,1.451,4.412,4.412,0,0,0,3.819-1.909,9.078,9.078,0,0,0,1.375-5.346V51.691a39.081,39.081,0,0,1-5.041,6.263,5.362,5.362,0,0,1-3.666,1.68c-2.52,0-3.742-1.375-3.742-4.124V46.115c-.611,2.215-1.84,5.592-2.6,6.356l-.955-.99a60.93,60.93,0,0,0,3.559-9.719l4.2-2.062V55.28c0,.917.382,1.375,1.069,1.375h.382c.993,0,3.208-2.749,6.8-8.248V41.762l4.124-2.062V56.884c1.757-.153,4.022-2.208,6.695-6.179Z" transform="translate(-5.82 28.81)" fill="#f3f1f2"/>
          </g>
          <g transform="matrix(1, 0, 0, 1, -102.07, -40.48)" filter="url(#Path_33)">
            <path id="Path_33-2" data-name="Path 33" d="M247.175,52.5c-2.979,4.735-5.881,7.027-8.707,7.027a2.884,2.884,0,0,1-2.291-.84,7.254,7.254,0,0,1-.764-3.666,14.7,14.7,0,0,1-3.971,3.819,7.257,7.257,0,0,1-3.666.916,5.866,5.866,0,0,1-4.735-2.062,8.621,8.621,0,0,1-1.757-5.652v-1.68c-.305.382-.917,1.3-1.986,2.826l-1.3-.917a33.963,33.963,0,0,1,7.256-8.478c2.52-2.062,4.735-3.055,6.645-3.055a7.547,7.547,0,0,1,4.048,1.222l3.437-1.757V53.642a8.074,8.074,0,0,0,.229,2.6c.153.306.458.458,1.069.458a4.336,4.336,0,0,0,2.215-1.375,25.336,25.336,0,0,0,3.208-3.819Zm-11.838-.458V44.019a5.088,5.088,0,0,0-3.742-1.6,5.519,5.519,0,0,0-4.2,2.215,8.29,8.29,0,0,0-1.909,5.5,6.954,6.954,0,0,0,1.3,4.43,4.51,4.51,0,0,0,7.027-.306A6.3,6.3,0,0,0,235.337,52.038Z" transform="translate(-13.82 28.69)" fill="#f3f1f2"/>
          </g>
          <g transform="matrix(1, 0, 0, 1, -102.07, -40.48)" filter="url(#Path_34)">
            <path id="Path_34-2" data-name="Path 34" d="M282.425,52.52c-3.131,4.735-6.11,7.027-9.012,7.027a2.563,2.563,0,0,1-2.138-.917c-.458-.611-.764-2.062-.764-4.277V45.264c0-1.375-.458-2.062-1.3-2.062a2.434,2.434,0,0,0-1.3.458,7.824,7.824,0,0,0-1.451,1.375c-.535.611-1.222,1.68-2.215,3.055a20.418,20.418,0,0,0-1.451,2.368v7.1l-3.9,2.52V46.945a22.153,22.153,0,0,1-3.112,5.68l-1.086-.99a24.819,24.819,0,0,0,4.275-9.5L262.8,40.3v7.332a30.349,30.349,0,0,1,4.582-5.652,5.819,5.819,0,0,1,3.513-1.451,2.915,2.915,0,0,1,2.52,1.222c.611.764.917,2.75.917,5.881V52.9a21.4,21.4,0,0,0,.153,2.9.875.875,0,0,0,.993.764c1.3,0,3.131-1.757,5.652-5.194Z" transform="translate(-22.49 28.67)" fill="#f3f1f2"/>
          </g>
        </g>
        <path id="Path_35" data-name="Path 35" d="M86.042,55.924,87.677,52.9,83.4,56.948Z" transform="translate(-27.341 -14.789)" fill="#f3f1f2"/>
      </g>
    </g>
  </g>
</svg>
