<svg id="_3" data-name="3" xmlns="http://www.w3.org/2000/svg" xmlns:xlink="http://www.w3.org/1999/xlink" width="640" height="320" viewBox="0 0 640 320">
  <defs>
    <filter id="Path_25" x="105.815" y="115.211" width="80.524" height="89.479" filterUnits="userSpaceOnUse">
      <feOffset dy="3" input="SourceAlpha"/>
      <feGaussianBlur stdDeviation="3" result="blur"/>
      <feFlood flood-opacity="0.161"/>
      <feComposite operator="in" in2="blur"/>
      <feComposite in="SourceGraphic"/>
    </filter>
    <filter id="Path_26" x="163.452" y="105.937" width="62.705" height="97.475" filterUnits="userSpaceOnUse">
      <feOffset dy="3" input="SourceAlpha"/>
      <feGaussianBlur stdDeviation="3" result="blur-2"/>
      <feFlood flood-opacity="0.161"/>
      <feComposite operator="in" in2="blur-2"/>
      <feComposite in="SourceGraphic"/>
    </filter>
    <filter id="Ellipse_10" x="173.936" y="117.61" width="31.432" height="32.072" filterUnits="userSpaceOnUse">
      <feOffset dy="3" input="SourceAlpha"/>
      <feGaussianBlur stdDeviation="3" result="blur-3"/>
      <feFlood flood-opacity="0.161"/>
      <feComposite operator="in" in2="blur-3"/>
      <feComposite in="SourceGraphic"/>
    </filter>
    <filter id="Path_29" x="205.758" y="138.718" width="63.414" height="57.977" filterUnits="userSpaceOnUse">
      <feOffset dy="3" input="SourceAlpha"/>
      <feGaussianBlur stdDeviation="3" result="blur-4"/>
      <feFlood flood-opacity="0.161"/>
      <feComposite operator="in" in2="blur-4"/>
      <feComposite in="SourceGraphic"/>
    </filter>
    <filter id="Path_30" x="247.654" y="78.752" width="80.684" height="119.382" filterUnits="userSpaceOnUse">
      <feOffset dy="3" input="SourceAlpha"/>
      <feGaussianBlur stdDeviation="3" result="blur-5"/>
      <feFlood flood-opacity="0.161"/>
      <feComposite operator="in" in2="blur-5"/>
      <feComposite in="SourceGraphic"/>
    </filter>
    <filter id="Path_31" x="306.92" y="138.238" width="78.666" height="58.937" filterUnits="userSpaceOnUse">
      <feOffset dy="3" input="SourceAlpha"/>
      <feGaussianBlur stdDeviation="3" result="blur-6"/>
      <feFlood flood-opacity="0.161"/>
      <feComposite operator="in" in2="blur-6"/>
      <feComposite in="SourceGraphic"/>
    </filter>
    <filter id="Path_32" x="365.412" y="137.439" width="76.782" height="108.189" filterUnits="userSpaceOnUse">
      <feOffset dy="3" input="SourceAlpha"/>
      <feGaussianBlur stdDeviation="3" result="blur-7"/>
      <feFlood flood-opacity="0.161"/>
      <feComposite operator="in" in2="blur-7"/>
      <feComposite in="SourceGraphic"/>
    </filter>
    <filter id="Path_33" x="419.556" y="138.238" width="79.085" height="58.937" filterUnits="userSpaceOnUse">
      <feOffset dy="3" input="SourceAlpha"/>
      <feGaussianBlur stdDeviation="3" result="blur-8"/>
      <feFlood flood-opacity="0.161"/>
      <feComposite operator="in" in2="blur-8"/>
      <feComposite in="SourceGraphic"/>
    </filter>
    <filter id="Path_34" x="478.248" y="138.398" width="76.042" height="59.416" filterUnits="userSpaceOnUse">
      <feOffset dy="3" input="SourceAlpha"/>
      <feGaussianBlur stdDeviation="3" result="blur-9"/>
      <feFlood flood-opacity="0.161"/>
      <feComposite operator="in" in2="blur-9"/>
      <feComposite in="SourceGraphic"/>
    </filter>
  </defs>
  <rect id="Rectangle_10" data-name="Rectangle 10" width="640" height="320" fill="none"/>
  <g id="Group_15" data-name="Group 15" transform="translate(95.945 84.752)">
    <g id="vichayan_svg" data-name="vichayan svg" transform="translate(0 0)">
      <g id="Group_12" data-name="Group 12" transform="translate(0 0)">
        <g id="Group_10" data-name="Group 10" transform="translate(0 7.676)">
          <ellipse id="Ellipse_9" data-name="Ellipse 9" cx="62.205" cy="64.443" rx="62.205" ry="64.443" fill="#c02179"/>
          <g transform="matrix(1, 0, 0, 1, -95.95, -92.43)" filter="url(#Path_25)">
            <path id="Path_25-2" data-name="Path 25" d="M49.144,27.239A13.1,13.1,0,0,1,55.861,25.8c5.437,0,10.234,2.4,14.232,7.036s5.917,10.554,5.917,17.59c0,16.471-8.955,31.982-27.025,46.853l-1.119-.8c.16-2.079.32-4,.32-5.6,0-6.4-4.158-15.031-12.313-26.225a52.851,52.851,0,0,0-6.077,8l-4.8,7.2-3.2-2.878a79.9,79.9,0,0,0,4.957-7.356c2.079-3.358,3.518-5.917,4.637-7.516a33.258,33.258,0,0,0,6.556-15.351H39.39c.64,3.518,3.038,8.315,7.036,14.072s6.556,10.234,7.516,13.272a28.9,28.9,0,0,1,1.439,8.795v2.878c11.034-11.194,16.471-23.027,16.471-35.5q0-6.956-3.358-11.034a11.152,11.152,0,0,0-8.955-4.158,16.138,16.138,0,0,0-8,2.079A20.217,20.217,0,0,1,49.144,27.239Zm35.18,50.371C76.809,89.764,67.374,96.32,56.18,97.279l-.8-1.919a29.585,29.585,0,0,0,12.793-5.917c3.518-2.718,7.676-7.516,12.633-14.392Z" transform="translate(93.01 95.41)" fill="#f3f1f2"/>
          </g>
          <g transform="matrix(1, 0, 0, 1, -95.95, -92.43)" filter="url(#Path_26)">
            <path id="Path_26-2" data-name="Path 26" d="M102.548,81.085A57.391,57.391,0,0,1,90.4,94.678c-4.158,3.2-7.836,4.8-11.194,4.8-3.678,0-6.077-.959-7.036-3.038q-1.439-2.878-1.439-10.554V67.173A58.379,58.379,0,0,1,61.292,83l-3.448-2.539c6.4-8.955,10.964-17.45,12.883-25.925L81.121,49.1V81.885c0,4,.16,6.716.64,8q.48,1.919,2.878,1.919c3.2,0,8.155-4.477,15.031-13.592Zm-17.91-52.13L77.283,38.23l-7.356-9.275L77.283,20Z" transform="translate(114.61 91.94)" fill="#f3f1f2"/>
          </g>
          <path id="Path_27" data-name="Path 27" d="M82.809,40.348H63.94a.688.688,0,0,1-.64-.64V20.04a.688.688,0,0,1,.64-.64H82.809a.688.688,0,0,1,.64.64V39.549A.732.732,0,0,1,82.809,40.348Z" transform="translate(21.932 -0.851)" fill="#c12179"/>
          <g transform="matrix(1, 0, 0, 1, -95.95, -92.43)" filter="url(#Ellipse_10)">
            <ellipse id="Ellipse_10-2" data-name="Ellipse 10" cx="6.716" cy="7.036" rx="6.716" ry="7.036" transform="translate(182.94 123.61)" fill="#f3f1f2"/>
          </g>
          <path id="Path_28" data-name="Path 28" d="M90.552,51.078s-4.8,6.891-7.521,10.569L86.5,63.586v.21l2.718-3.568C89.538,58.469,90.552,51.078,90.552,51.078Z" transform="translate(33.752 18.128)" fill="#f3f1f2"/>
        </g>
        <g id="Group_11" data-name="Group 11" transform="translate(118.812)">
          <g transform="matrix(1, 0, 0, 1, -214.76, -84.75)" filter="url(#Path_29)">
            <path id="Path_29-2" data-name="Path 29" d="M129.714,65.766c-6.077,9.914-13.912,14.712-23.507,14.712A15.057,15.057,0,0,1,94.854,75.84c-2.878-3.2-4.318-7.516-4.318-13.113l.16-.64L87.018,67.2,84.3,65.286c8-11.993,13.752-19.189,17.27-21.428A19.029,19.029,0,0,1,111.964,40.5c5.6,0,9.754,1.919,12.313,5.917A9.574,9.574,0,0,1,119,52.973q-3.6-9.115-10.554-9.115c-2.718,0-5.117,1.279-7.356,3.838a14.18,14.18,0,0,0-3.358,9.754,18.757,18.757,0,0,0,3.838,11.833,11.911,11.911,0,0,0,9.914,4.957c5.6,0,10.839-3.408,15.636-10.6Z" transform="translate(130.46 104.22)" fill="#f3f1f2"/>
          </g>
          <g transform="matrix(1, 0, 0, 1, -214.76, -84.75)" filter="url(#Path_30)">
            <path id="Path_30-2" data-name="Path 30" d="M173.184,88.232c-6.556,9.914-13.113,14.712-19.189,14.712a4.514,4.514,0,0,1-4.158-2.079c-.959-1.439-1.439-4.318-1.439-8.8V74c0-3.2-1.279-4.8-3.678-4.8-1.919,0-4,.959-6.077,2.878a23.217,23.217,0,0,0-5.757,7.836c-1.759,3.358-2.559,5.437-2.559,6.556V99.105l-8.315,5.277V75.119a87.6,87.6,0,0,1-8.955,14.552L110.5,87.592c1.279-2.079,2.559-4,3.678-5.917s2.718-4.8,4.8-8.795,3.038-6.4,3.038-7.356V29.865c0-7.836,1.919-14.232,5.757-19.349C131.608,5.559,136.085,3,141.2,3c6.077,0,9.115,3.838,9.115,11.354,0,9.914-6.716,25.585-19.989,47.333V77.358q5.757-7.916,10.074-11.034a14.323,14.323,0,0,1,8.795-3.038c4.957,0,7.516,3.678,7.516,10.874V90.79q0,6.236,2.4,6.236c2.878,0,6.716-3.678,11.833-10.874ZM130.169,54.491c5.437-9.914,9.115-17.75,11.194-23.507A46.722,46.722,0,0,0,144.4,15.153a12.886,12.886,0,0,0-1.6-6.876c-1.119-1.759-2.559-2.718-4.158-2.718-2.559,0-4.637,1.759-6.236,5.117-1.439,3.358-2.239,8.155-2.239,14.232V54.491Z" transform="translate(146.15 81.75)" fill="#f3f1f2"/>
          </g>
          <g transform="matrix(1, 0, 0, 1, -214.76, -84.75)" filter="url(#Path_31)">
            <path id="Path_31-2" data-name="Path 31" d="M208.228,65.945c-5.6,7.516-11.993,13.912-17.91,14.712a5.148,5.148,0,0,1-4.8-1.759c-.959-1.279-1.439-3.838-1.6-7.676-3.2,4.158-6.077,6.716-8.315,8a15.194,15.194,0,0,1-7.676,1.919,12.281,12.281,0,0,1-9.914-4.318c-2.4-2.878-3.678-6.876-3.678-11.833V61.468c-.64.8-1.989,2.574-4.228,5.772l-2.549-1.724c4.8-7.516,9.655-13.482,15.091-17.8,5.277-4.318,9.914-6.4,13.912-6.4a15.8,15.8,0,0,1,8.475,2.559l7.2-3.678V68.344c0,3.038.16,4.8.48,5.437s.959.959,2.239.959c.959,0,2.559-.959,4.637-2.878a44.975,44.975,0,0,0,6.556-8Zm-24.466-.959V48.2a10.653,10.653,0,0,0-7.836-3.358c-3.2,0-6.236,1.6-8.8,4.637a17.357,17.357,0,0,0-4,11.513c0,4,.959,7.036,2.718,9.275,1.919,2.239,4.318,3.2,7.676,3.2,2.559,0,4.8-1.279,7.036-3.838C182.643,67.225,183.762,65.626,183.762,64.986Z" transform="translate(168.36 104.04)" fill="#f3f1f2"/>
          </g>
          <g transform="matrix(1, 0, 0, 1, -214.76, -84.75)" filter="url(#Path_32)">
            <path id="Path_32-2" data-name="Path 32" d="M242.922,64.646c-5.757,9.754-11.354,14.872-16.631,15.831v26.385a24.454,24.454,0,0,1-5.917,16.471,18.989,18.989,0,0,1-14.872,6.556,21.667,21.667,0,0,1-10.074-2.718,17.96,17.96,0,0,1-7.676-7.356l6.876-7.836,1.119,1.119c-.16,1.439-.32,2.4-.32,3.2a9.493,9.493,0,0,0,3.358,7.036,11.366,11.366,0,0,0,8,3.038,9.238,9.238,0,0,0,8-4c1.919-2.718,2.878-6.4,2.878-11.194V64.806c-4.477,6.4-8,10.874-10.554,13.113-2.559,2.4-5.117,3.518-7.676,3.518-5.277,0-7.836-2.878-7.836-8.635V53.132c-1.279,4.637-3.853,11.708-5.452,13.307l-2-2.074a127.572,127.572,0,0,0,7.451-20.348l8.795-4.318V72.321c0,1.919.8,2.878,2.239,2.878h.8c2.079,0,6.716-5.757,14.232-17.27V44.018l8.635-4.318V75.68c3.678-.32,8.42-4.622,14.017-12.938Z" transform="translate(190.27 103.74)" fill="#f3f1f2"/>
          </g>
          <g transform="matrix(1, 0, 0, 1, -214.76, -84.75)" filter="url(#Path_33)">
            <path id="Path_33-2" data-name="Path 33" d="M279.085,65.945c-6.236,9.914-12.313,14.712-18.23,14.712-2.239,0-3.838-.64-4.8-1.759-.959-1.279-1.439-3.838-1.6-7.676-3.2,4.158-6.077,6.716-8.315,8a15.194,15.194,0,0,1-7.676,1.919,12.281,12.281,0,0,1-9.914-4.318c-2.4-2.878-3.678-6.876-3.678-11.833V61.468c-.64.8-1.919,2.718-4.158,5.917L218,65.466c4.8-7.516,9.754-13.432,15.191-17.75,5.277-4.318,9.914-6.4,13.912-6.4a15.8,15.8,0,0,1,8.475,2.559l7.2-3.678V68.344c0,3.038.16,4.8.48,5.437s.959.959,2.239.959c.959,0,2.559-.959,4.637-2.878a53.046,53.046,0,0,0,6.716-8ZM254.3,64.986V48.2a10.653,10.653,0,0,0-7.836-3.358c-3.2,0-6.236,1.6-8.795,4.637a17.357,17.357,0,0,0-4,11.513c0,4,.959,7.036,2.718,9.275,1.919,2.239,4.318,3.2,7.676,3.2,2.559,0,4.8-1.279,7.036-3.838C253.18,67.225,254.3,65.626,254.3,64.986Z" transform="translate(210.56 104.04)" fill="#f3f1f2"/>
          </g>
          <g transform="matrix(1, 0, 0, 1, -214.76, -84.75)" filter="url(#Path_34)">
            <path id="Path_34-2" data-name="Path 34" d="M312.745,65.885C306.189,75.8,299.952,80.6,293.876,80.6a5.367,5.367,0,0,1-4.477-1.919c-.959-1.279-1.6-4.318-1.6-8.955V50.694c0-2.878-.959-4.318-2.719-4.318a5.1,5.1,0,0,0-2.718.959,16.379,16.379,0,0,0-3.038,2.878c-1.119,1.279-2.559,3.518-4.637,6.4-1.919,3.038-3.038,4.637-3.038,4.957V76.439l-8.155,5.277v-27.5a46.383,46.383,0,0,1-6.516,11.893L254.7,64.032c5.437-7.836,7.511-13.5,8.95-19.894l8-3.838V55.651c4-5.917,7.2-9.754,9.595-11.833A12.183,12.183,0,0,1,288.6,40.78a6.1,6.1,0,0,1,5.277,2.559c1.279,1.6,1.919,5.757,1.919,12.313V66.685a44.805,44.805,0,0,0,.32,6.077,1.833,1.833,0,0,0,2.079,1.6c2.718,0,6.556-3.678,11.833-10.874Z" transform="translate(232.54 104.1)" fill="#f3f1f2"/>
          </g>
        </g>
        <path id="Path_35" data-name="Path 35" d="M88.932,59.231,92.355,52.9,83.4,61.375Z" transform="translate(33.973 26.895)" fill="#f3f1f2"/>
      </g>
    </g>
  </g>
</svg>
